<svg xmlns="http://www.w3.org/2000/svg" xml:space="preserve" id="Layer_1" x="0" y="0" style="enable-background:new 0 0 436 256" viewBox="0 0 436 256">  <style>.qagmainst1{fill-rule:evenodd;clip-rule:evenodd;fill:#abe1fa}.qagmainst2{fill:#fff}</style>  <path d="M214.04 182.5v66.41c2.21 1.26 3.45 1.9 3.45 1.9s1.24-.64 3.45-1.9v-64.15c-2.44-.45-4.75-1.22-6.9-2.26m-13.79-13.55v71.45c2.52 1.67 4.84 3.14 6.9 4.41v-66.93c-2.78-2.51-5.09-5.56-6.9-8.93zm-13.8-1.82v63.58c2.38 1.78 4.69 3.44 6.9 4.99v-67.13c-1.93-.37-4.3-.87-6.9-1.44zm-13.79-3.12v55.76c2.33 1.97 4.64 3.85 6.9 5.64v-59.82c-2.35-.53-4.69-1.07-6.9-1.58zm-13.79-3.13v46.43c2.3 2.23 4.6 4.38 6.9 6.45v-51.34c-2.47-.57-4.16-.96-4.39-1.01-.84-.18-1.68-.36-2.51-.53zm-13.8-3.15v35.07c2.27 2.6 4.57 5.12 6.9 7.56v-41.01c-2.29-.53-4.59-1.07-6.9-1.62zm-13.79-3.43v20.89c2.22 3.19 4.53 6.29 6.9 9.29v-28.44c-2.22-.55-4.54-1.14-6.9-1.74zm-13.8-3.59v1.01c2.12 4.4 4.43 8.67 6.9 12.8v-12c-1.76-.45-3.52-.91-5.26-1.36-.57-.15-1.11-.3-1.64-.45zm110.35 34.46v59.65c2.06-1.27 4.37-2.75 6.9-4.41v-56.62c-2.32.77-4.62 1.22-6.9 1.38zm13.8-4.89v55.42c2.21-1.55 4.51-3.21 6.9-4.99v-57.22c-1.91 2.56-4.2 4.89-6.9 6.79zm13.79-8.68v53.81c2.26-1.79 4.56-3.67 6.9-5.64v-46.6l-.09-.02c-2.65-.48-4.85-.88-6.81-1.55zm13.79 5.06v37.1c2.29-2.07 4.6-4.22 6.9-6.45v-25.94c-2.28-1.11-4.4-2.76-6.48-4.39l-.42-.32zm13.8 6.24v17.45a241.2 241.2 0 0 0 6.9-7.56v-9.93c-2.38.15-4.74.19-6.9.04zm41.38-136.13v50.22c2.26.41 4.53.83 6.8 1.28.06-1.57.09-3.15.1-4.75V47.33c-2.37 0-4.67-.19-6.9-.56zm-13.8-4.99v52.88c2.27.36 4.58.74 6.9 1.13V45a39.83 39.83 0 0 1-6.9-3.22zM296.8 28.4v64.21c2.29.31 4.59.64 6.9.98V36.67a41.6 41.6 0 0 1-6.9-8.27zM283.01 4.25v86.64c2.28.26 4.59.53 6.9.82V4.25h-6.9zm-13.8 0v85.23c2.28.21 4.58.43 6.9.67V4.25h-6.9zm-13.79 0v81.6c.87.83 1.82 1.78 2.71 2.78 1.88.1 3.04.18 4.19.27V4.25h-6.9zm-13.79 0v68.58c.7.62 1.18 1.06 1.32 1.19 1.72 1.51 3.4 3.05 4.95 4.52l.63.6V4.25h-6.9zm-13.8 0v59.11c.96.34 1.82.71 2.57 1.1 1.35.7 2.85 1.68 4.33 2.76V4.25h-6.9zM103.69 47.33v30.99l.46-.37c.95-.77-.07.09.81-.64 1.69-1.38 3.59-2.78 5.62-4.15V46.77c-2.22.37-4.52.56-6.89.56zM117.48 45v23.96a90.488 90.488 0 0 1 6.89-3.43V41.78a39.056 39.056 0 0 1-6.89 3.22zm13.8-8.33v26.21c.58-.19 1.16-.36 1.73-.52 1.7-.48 3.42-.92 5.16-1.31V28.4a41.553 41.553 0 0 1-6.89 8.27zm13.79-32.42v55.49c2.28-.36 4.58-.65 6.9-.89V4.25h-6.9zm13.8 0v54.03c2.27-.14 4.58-.24 6.9-.3V4.25h-6.9zm13.79 0v53.63c2.3-.01 4.6.01 6.9.03V4.25h-6.9zm13.79 0v53.83c2.06.08 4.4.19 6.9.34V4.25h-6.9zm13.8 0v54.64c2.29.18 4.62.38 6.9.62V4.25h-6.9zm13.79 0v56.08c2.42.34 4.74.73 6.9 1.17V4.25h-6.9z" style="fill-rule:evenodd;clip-rule:evenodd;fill:#ad77ff"></path>  <path d="m104.76 90.95.78.27c2.05.39 4.22.45 6.3 1.19-.58.46-2.01.12-2.73.08-1.05-.06-2.11-.07-3.16-.07-2-.01-4.44-.21-6.38.01-3.64.4-7.37 1.02-10.88 1.73-1.67.34-3.51.68-5.1 1.13-2.09.59-3.67 5.09-4.94 7.66-.83 1.67-.89.62-.74 3.98.02.53.02.96.34 1.35 1.03-.65.04-2.49 1.88-2.84 1.14-.22 3.25-.17 4.51-.22l9.16-.37c-1.02-.82-13.01-.61-13.95-1.34-.2-.21-.26.36-.13-.5l.82-1.71c.39-.83.75-1.48 1.17-2.18 1.73-2.88 2.08-2.83 4.11-2.78 2.89.07 24.94.79 25.98 1.22.39.16 2.85 2.89 3.29 3.43.53.65 1.07 1.16 1.57 1.8.53.68 1.24 1.11 1.65 1.95-1.32 1.18-6.45 1.95-7.4 2.81.79.27 8.58-.24 10.17-.27 49.78-1.18 100.53 5.36 149.73 10.94.16 1.45-1.55 1.81-.84 8.2.07.67-.01.76.36 1.16.46-.29.32-.25.52-.98.63-2.34 2.4-5.72 4.07-7.19 3.6-3.15-.43-5.17-3.43-6.42-14.18-5.92-50.56-8.74-66.41-10.34-15.64-1.58-31.7-2.67-47.58-3.36-4.09-.18-8.2-.44-12.24-.54-3.97-.1-8.37-.21-12.25-.52-2.04-.16-4.17-.14-6.22-.22-4.48-.17-4.19-.09-8.93-3.82-.7-.56-3.43-2.28-3.65-2.93 1.13-.54 4.13-.75 4.59-1.9.46-1.14.93-3.92 1.29-5.27.87-3.3 3.67-5.04 6.78-6.31 6.87-2.81 13.26-4.12 21.3-4.88 15.72-1.49 13.54-.79 17.71 7.34 3 5.85 5.71 11.98 8.74 17.59 1.66.25 15.54-.45 18.98-.42 6.46.05 13.05-.28 19.47-.12 6.3.17 13.03 0 19.31-.11 3.24-.06 6.5.07 9.74-.02 1.97-.06 8.26.15 9.68-.2-.16-.71-5.47-5.45-6.08-6.08-2.8-2.87-6.36-6.32-9.54-9.1-2.84-2.48-7.18-6.44-10.49-8.15-7.18-3.71-35.29-5.26-44.35-5.39-15.42-.23-31.48.06-45.53 4.05-8.13 2.31-18 7.82-24.29 12.98-.95.77-6.5 5.16-6.76 5.68m74.69 5.21c-2.96-5.03-5.72-12.17-8.22-17.78-.62-1.38-2.54-5.39-1.29-6.21 1.21-.79 13.72-1.18 16.09-1.16 13.07.16 19.37.36 32.3 2.24 2.88.42 4.51.62 6.89 1.84 1.84.94 8.07 6.06 9.65 7.65 1.46 1.48 5.24 4.57 6.73 6.2l5.46 5.46c.63.63.76.59.89 1.1l-68.5.66zM234.49 143c-2.83-3.72-4.19-3.83-5.57-5.09.25-2.01 2.61-5.51 2.59-6.98-2.21-1.44-4.02-2.56-6.92-3.64-3.62-1.35-5.38-.77-8.12 1-4.38 2.84-7.14 7.47-9.01 12.31-3.99 10.33-.41 24.81 8.28 30.97 4.49 3.18 10.37 4.53 16.55 2.09 12.42-4.91 15.42-23.96 12.81-28.27-1.28-2.13-3.25-4.07-4.62-5.96-1.11-1.54-1.58.15-2.83 1.3-.59.55-2.26 2.12-3.16 2.27m-12.12 29.3c-1.86-.28-5.15-2.4-6.24-3.3-1.49-1.23-3.28-3.14-4.42-4.98-7.92-12.83-2.79-31.5 11.89-36.02.98-.3.97.06 1.04.13-2.73 1.28-2.89 1.22-5.28 3.22-11.41 9.54-10.82 30.24.49 38.98.46.35.74.61 1.23.95.54.36.96.39 1.29 1.02zm-2.43-27.18c-.9-.11-3.04-2.42-3.65-3.16-1.62-1.98-1.66-1.86-.21-4.15 1.16-1.84 4.74-6.23 6.68-6.66.24.88.16 3.19.26 4.39.13 1.46.25 2.89.46 4.28.25 1.6-.47.99-2.7 4.05-.32.46-.4.85-.84 1.25zm10.24 4.95c-.4 4.03-3.59 4.74-4.31 4.04.72-.54 1.33-.86 1.92-1.72 2.55-3.73-.77-7.1-.85-8.33 2.31.29 3.52 3.25 3.24 6.01zm-6.81-3.47c1.16-3.72 5.78-.42 3.78 4.97-.27.73-.2.87-.81.98-.1-.82 1.63-7.03-2.97-5.95zm17.86 14.49c-.79-.2-6.54-4.37-6.4-5.54.05-.45.42-1.36.54-1.96l.52-3.17c.09-.64.01-.64.43-.96.46-.4 6.2-.57 7.22-.48.59 1.38-.92 10.98-2.31 12.11zm-22.7-10.79c.48.98.83 2.54 1.24 3.64.35.95 1.32 2.66 1 3.49-.51 1.31-3.38 5.06-4.18 5.58l-.35-.33c-.08-.08-.24-.28-.3-.37-.22-.3-.36-.54-.52-.81-1.62-2.78-3.64-10.29-2.19-11.26.43-.31 4.62-.13 5.3.06zm6.61 9.79 5.57-.51c.4.33.32.33.61.94l1.68 3.35c.59 1.11 1.67 3.5 1.84 4.83-1.7 1.77-6.31 2.3-9.34 1.84-1.5-.23-.98-1.47-.92-5.02.03-1.28-.23-4.77.56-5.43z" class="qagmainst1"></path>  <path d="M90.67 125.24c.21-.38.2-.48.12-1.13-.26-1.93-.19-1.7-.15-3.77.03-1.57.25-3.08.82-4.43 1.95-4.67 6.16-4.23 10.11-1.43 3.05 2.16 4.86 5.71 6.51 9.11 1.12 2.31 2.07 4.99 3.02 7.39 2.61 6.59 3.55 8.36 10.62 10.19 13.44 3.49 28.26 7.31 41.76 10.12 1.97.41 33.05 7.7 33.79 7.65.11-2.54-.9-5.96-.33-12.26.91-9.98 5.67-19.8 16.59-22.19 11.3-2.47 20.12 3.48 26.89 10.64 2.39 2.53 3.69 4.41 5.68 7.08.46.62.92 1.27 1.36 2 .42.7.81 1.23 1.24 1.95 1.91 3.23 2.87 4.95 4.54 8.39 4.52 9.28 7.1 7.19 16.23 9.63 1.01.27 1.28.78 1.92 1.27.66.51 1.17.87 1.84 1.35 2.42 1.69 5.47 4.44 7.55 5.38 3.79 1.73 18.38-.7 23.12-1.25l9.73-1.53c.6-.15.77-.05.98-.51-.41-.13-20.15 1.62-22.82 1.7-3.54.11-8.21.95-11.11-.66-2.21-1.23-4.33-3.13-6.22-4.52-.59-.43-.56-.26-.84-.79 1.72.03 3.34.14 5.08.08.86-.03 1.68.05 2.52.06 1.51.01 1.76.02 2.01-.57-.63-.47-3.65-.44-4.76-.6l-13.61-2.2c-3.7-.69-5.33-.92-7.19-3.37-1.58-2.08-2.38-4.38-3.68-6.9-1.21-2.36-2.33-4.75-3.53-7.05-5.92-11.44-14.88-22.78-28.75-24.14-19.35-1.88-27.78 14.74-26.89 31.09.05.86.41 4.3.34 4.64l-34.9-7.37c-11.56-2.38-23.31-4.77-34.56-7.74-7.66-2.02-9.77-1.62-12.25-8.9-2.49-7.32-3.93-16.86-10.85-20.9-2.25-1.31-5.59-2.16-8.47-.89-6.04 2.68-4.85 14.52-3.46 15.38M225.01 99.35c.92.34 4.76.37 6.14.54 1.99.24 4.25.44 6.25.6 17.34 1.42 55.84 5.88 70.97 11.5 2.13.79 5.12 2.04 6.66 3.59.27.27.57.55.79.89.28.45.25.74.66 1.19 1.49.33 7.94-.04 9.91-.11 4.6-.15 28.83-.61 29.69-1.06.18-1.31-1.24-1.76-2.39-2.13-1.14-.37-2.51-.72-3.67-1.03-27.64-7.26-60.03-11.89-88.43-14.13-3.15-.25-5.66-.43-8.9-.39-3.13.03-6.27.04-9.4.11l-16.12.17c-.68 0-1.42-.07-2.04.2-.04.01-.09.03-.12.06" class="qagmainst1"></path>  <path d="M193.95 99.69c.41.38 1.56.33 2.7.44 1.11.11 2.03.16 3.04.3 1.01.14 2.04.08 3.05.21.99.13 1.91.29 2.95.32 6.41.22 17.2 1.68 24.05 2.17 4 .29 7.98.99 11.88 1.4 8.73.92 24.19 3.56 32.11 7.36 2.26 1.08 5.47 2.95 6.11 5.47.1.39.13 1.08.42 1.3.27.14 21.55 1.27 21.76 1.18.23-1.87-2.32-3.72-3.39-4.48-1.47-1.05-3.49-1.94-5.37-2.7-9.9-4.01-28.77-7.36-39.67-8.65-2.27-.27-4.87-.46-7.06-.87l-14.5-1.59c-2.41-.13-4.95-.59-7.39-.71-3.56-.18-29.4-2.11-30.69-1.15M352.09 136.77c-2.92 1.47 4.16 3.29-9.14 5.68-11.94 2.14-28.7 4.65-40.41 4.43-4.93-.09-9.64-.33-14.43-.42-4.9-.09-9.91-.13-14.78-.29-4.75-.16-8.7-.97-13.11-1.79-1.79-.33-4.87-.99-6.22.12-2.24 1.83 2.45 2.55 3.84 2.75 12.25 1.74 15.85 1.45 27.91 1.84 9.83.31 19.24.41 28.88-.36 8.73-.69 17.95-1.96 26.4-3.49 4.1-.74 8.52-1.41 12.49-2.44 7.34-1.9 1.47-4.55-.06-5.72-.47-.36-.77-.61-1.37-.31" class="qagmainst1"></path>  <path d="M290.71 135.54c-.41-.1-1.51-1.08-2.37-1.49-.68-.33-3.19-1.38-3.42-.08l-.03 1.49c.51 5.47-.51 3.75-.62 5.21 1.45.55 8.08.82 10.05.98 1.71.14 3.33.43 4.84-.34 1.46-.74 1.38-1.95 2.11-3.6 1.15-2.59 2.38-4.93 3.64-7.44.6-1.2 3.53-6.66 3.45-7.67-2.78-.27-10.94 1.23-13.86 2.47-8.3 3.54-3.53 9.12-3.79 10.47M211.3 93.86c1.77.13 14.74-.05 15.55-.37.63-1.71-4.26-6.68-5.73-7.92-2.56-2.16-5.19-4.11-8.08-5.85-2.82-1.69-5.88-3.37-8.94-5-2.33-1.24-2.34-1.37-5.34-1.54-1.59-.09-5.56-.25-6.98.02.19.48 2.57 1.63 3.13 1.97 4.36 2.63 14.68 9.48 16.82 14.58 1.11 2.62-.01 3.15-.43 4.11M97.91 114.42c-4.78 1.88-5.8 12.07-5.41 18.35.21 3.41.97 6.8 2.11 9.65 4.17 10.38 12.65 4.48 11.89-13.29-.15-3.54-.86-6.61-2.03-9.67-.84-2.21-3.37-6.29-6.56-5.04m-.53 12.51c-.49-.49-2.07-5.31-1.58-6.64.57-1.54 2.2-4.29 4.14-3.86.19.41-.52 8.01-1.17 8.68-.4.41-.48.23-.82.87l-.49.88c0-.05-.04.04-.08.07zm5.17.78c-.49-.55-.61-1.19-1-1.79-.57-.88-.49-.93-.09-2.01.31-.84 1.16-3.66 1.64-4.06.56.26.49.65.74 1.44.45 1.44 1.12 3.5 1.12 4.97-.54.34-1.8 1.26-2.41 1.45zm-2.49-.06c1.64.52 1.87 4.41 1.07 5.84-.27.49-.89 1.2-1.36.93-.32-.63.25-.3.18-1.06l-.11-1.77c.05-2.53-.99-2.2-1.4-2.52.52-1.54 1.18-.49 1.77-.2l-.15-1.22zm-5.89-1.36c.64.24.74.54 1.01.96.26.4.56.74.88 1.13 1.27 1.56.68.99.85 3.21.14 1.88.5 1.66-.51 3.21-.38.58-1.14 2.08-1.75 2.38-.75-3.89-1.05-6.82-.48-10.89zm10.78 12.58c-.85-.21-.64-.43-1.37-1.38-1.83-2.4-1.74-1.18-.98-3.54.29-.92.22-1.51.42-2.44.4-.3 1.71-.73 2.33-.7.77.04.54.7.4 2.61-.15 1.91-.36 3.7-.8 5.45zm-6.49-1.5c2.34-.47 2.3 2.3 3.18 5.59.26.97.66 1.6-.6 1.87-2.15.46-3.49-.25-3.54-2.31-.04-1.48.32-4.13.96-5.15zM278.6 120c-3.44 1.15-5.34 5.94-5.99 10.37-.36 2.42-.08 4.96.72 7.1 2.33 6.23 9.4 3.25 10.82-7.28.33-2.47.06-5.09-.75-7.17-.66-1.71-2.28-3.86-4.8-3.02m-4.68 15.8c1.61.22 3.19 1.56 5.95-2.53.75-1.11 1.68-3.18 2.12-4.6.29-.93.11-1.19.77-1.61.23.94-.98 11.56-5.73 11.57-1.61.01-2.84-1.43-3.11-2.83z" class="qagmainst1"></path>  <path d="M199.5 94.1c1.46.28 5.56.15 7.18.05 1.39-.09 2.07-.15 2.69-1 .56-.77.62-1.83.21-2.91-1.98-5.15-14.95-13.59-20.28-16.32-.95-.49-1.64-.86-2.93-.84-.84.01-2.98-.1-3.61.14.29.28 2.46 1.42 3 1.72 5.15 2.92 13.67 8.84 14.44 15.08.26 2.11-.81 3.07-.7 4.08M131.18 136.97c.31.16 4.01.91 4.76 1.08 5.83 1.26 32.64 6.92 34.53 6.37.16-1.53-.42-4.69-.5-6.43-.1-2.15-.29-5.21-.2-7.22.09-1.91.25-13.73-.35-14.39-1.27 3.08-1.83 14.78-1.9 19.26-.1 7.28.59 6.05-6.54 5.46-4.06-.36-28.16-5.3-29.8-4.13M303.21 139.98c.53-.19.56-.59.91-1.25l5.57-10.22c3.24-5.57 5.84-5.7 12.15-5.96 7.84-.32 17.51-.87 25.31-1.77 1.69-.2 6.69-.43 7.46-1.61-.76-.46-15.25.41-17.32.48-5.87.2-11.91.64-17.79.6-6.5-.05-8.68 2.73-10.89 7.18-.75 1.5-5.94 11.57-5.4 12.55M306.62 143.18c1.88 1.73 33.33-2.29 39.27-3.5 2.43-.49 2.95-1.44 3.81-3.41.46-1.06 2.21-4.23 1.84-5.13-1.07.41-2.05 2.98-2.68 4.29-.97 2.01-1.26 3.01-3.86 3.37-8.99 1.24-16.37 2.29-25.54 3-2 .16-12.05.53-12.84 1.38M286.09 151.87c.2.21-.31.34.68.49l7.19.47c2.51.2 5.33.41 7.79.71 5.8.72 6.33-.16 4.84 2.43-.55.95-1.04 1.82-1.62 2.74-.3.47-.5.89-.85 1.34-.36.47-.59.68-.52 1.37.98-.2 5.08-5.43 6.11-6.7.4-.48.58-.74 1-1.19 2.46-2.62-4.22-1.99-5.65-2.01-3.49-.05-17.04-.19-18.97.35" class="qagmainst1"></path>  <path d="M312.11 138.24c.59-.2.41-.4 1.11-1.67 1.24-2.28 3.74-7.72 5.85-8.76 2.14-1.06 12.61-1.1 16.16-1.47 2.7-.28 5.19-.39 7.88-.83.77-.12 1.93-.07 2.2-.78-.73-.18-19.86.69-22.79.72-4.11.05-5.54 1.81-6.97 4.71-.52 1.05-3.76 7.38-3.44 8.08M293.25 109.98c3.34.93 8.39 3.69 11.14 6 .48.4 1.04 1.02 1.43 1.42.51.52.73 1.2 1.42 1.46.74-.03 4.73-.6 5.12-.87-.05-2.19-5.98-4.4-8.42-5.26-1.03-.36-8.53-2.72-9.87-2.93-1.04-.15-.55-.05-.82.18M134.51 128.4c-.33-.58-.35-.26-1.92-.62-5.04-1.15-9.08-1.51-14.9-3.06-3.44-.91-3.45-1.88-4.06-6.2-.45-3.15-.38-4.12-.61-6.92l-.35-2.41c-.74 1.25-.57 12.04.43 14.42.58 1.38 1.31 1.97 2.98 2.4 2.07.54 17.32 2.97 18.43 2.39M287.42 156.82c.59-1.58-.6-2.07-2.15-1.87-.99.13-2.23.78-3.01 1.19-6.24 3.32-5.26 8.83 1.02 4.89 1.43-.9 3.51-2.53 4.14-4.21M316.04 160.17c1.26 1.77 12.64-.78 14.55-1.69 2.09-1.01 3.03-2.42 4.25-4.48.51-.87 2.96-4.69 2.45-5.8-1.11.09-2.38 3.07-3.57 4.84-1.12 1.66-2.21 3.31-4.01 4.22-4.48 2.27-12.98 2.36-13.67 2.91" class="qagmainst1"></path>  <path d="M418.5 208.59c1.19-.31 2.07-.96 2.64-1.94.58-.98.86-2.18.86-3.61 0-1.22-.35-2.1-1.05-2.64-.7-.54-1.8-.81-3.3-.81-.31 0-.51.04-.6.13-.09.09-.17.32-.24.71-.49 2.65-.92 5.23-1.31 7.75l3 .41zm-5.81-13.4c1.22 0 2.53-.03 3.93-.1 1.4-.07 2.37-.12 2.93-.16 3.73 0 6.42.72 8.06 2.15 1.64 1.43 2.46 3.12 2.46 5.08 0 1.88-.55 3.64-1.65 5.26-1.1 1.62-2.54 2.92-4.32 3.9-1.78.98-3.63 1.47-5.55 1.47h-3.66l-.37 2.57c-.07.56-.1.94-.1 1.15 0 .59.14 1.01.42 1.26.28.24.75.37 1.41.37l1.52-.05c0 .07.02.12.05.16a.4.4 0 0 1 .1.16l-.84 3.25c-.52 0-1.43-.03-2.72-.08-1.29-.05-2.51-.08-3.66-.08-.84 0-2.17.05-4 .16-1.83.1-3.04.17-3.64.21l.79-3.51c1.05-.14 1.8-.46 2.25-.97.45-.51.77-1.32.94-2.43l1.78-14.19c.03-.24.05-.56.05-.94 0-.45-.07-.78-.21-.97-.14-.19-.38-.29-.73-.29l-1.52.05-.26-.47.73-2.98 5.81.02zm-26.33 18.43c0 2.37 1.06 3.56 3.19 3.56 1.22 0 2.15-.31 2.8-.94.65-.63 1.06-1.66 1.23-3.09.28-2.02.57-4.34.86-6.94.3-2.6.5-4.42.6-5.47l.1-1.1c0-.42-.07-.71-.21-.86-.14-.16-.38-.24-.73-.24l-1.1.05-.1-.16.84-3.4c.38 0 1.06.03 2.04.08s1.95.08 2.93.08c1.29 0 2.49-.02 3.59-.05 1.1-.04 1.84-.07 2.22-.1l-.73 3.4c-.94.28-1.56.52-1.86.73-.3.21-.46.58-.5 1.1l-1.47 11.83c-.45 3.32-1.66 5.78-3.61 7.41-1.95 1.62-4.73 2.43-8.32 2.43-3.18 0-5.56-.58-7.14-1.73-1.59-1.15-2.4-2.91-2.43-5.29 0-.52.05-1.06.16-1.62l1.57-12.56c.03-.28.05-.63.05-1.05 0-.45-.07-.76-.21-.92-.14-.16-.42-.24-.84-.24l-1.26.05-.05-.16.79-3.4c.45.03 1.34.07 2.67.1 1.33.03 2.79.05 4.4.05 1.05 0 2.12-.03 3.22-.08s1.86-.08 2.28-.08l-.79 3.45c-.8.07-1.39.26-1.75.58-.37.31-.58.8-.65 1.47l-1.67 11.78-.12 1.33zm-25.29 3.66c3.52 0 5.29-3.75 5.29-11.25 0-4.12-1.27-6.18-3.82-6.18-3.42 0-5.13 3.73-5.13 11.2 0 4.16 1.22 6.23 3.66 6.23zm-1.1 4.66c-3.56 0-6.34-.96-8.35-2.88s-3.01-4.66-3.01-8.22c0-5.1 1.33-9.06 3.98-11.91 2.65-2.84 6.39-4.27 11.2-4.27 3.63 0 6.44.93 8.43 2.8 1.99 1.87 2.98 4.56 2.98 8.09 0 5.1-1.34 9.1-4.03 12.01-2.68 2.93-6.42 4.38-11.2 4.38zm-25.12-14.34c.94-.35 1.74-.93 2.38-1.75.65-.82.97-1.86.97-3.11 0-1.08-.38-1.88-1.13-2.38s-1.93-.76-3.53-.76c-.31 0-.51.04-.6.13-.09.09-.17.34-.24.76-.38 1.85-.79 4.08-1.2 6.7l3.35.41zm-4.45 7.59c-.07.7-.1 1.13-.1 1.31 0 .66.17 1.09.52 1.28.35.19 1.08.32 2.2.39l.16.26-.79 3.19c-.52 0-1.45-.03-2.77-.08-1.33-.05-2.58-.08-3.77-.08-1.26 0-2.63.05-4.11.16s-2.45.17-2.9.21l.84-3.51c1.08-.17 1.85-.5 2.3-.97.45-.47.75-1.28.89-2.43l1.83-14.6c.03-.21.05-.45.05-.73 0-.38-.07-.65-.21-.81-.14-.16-.38-.24-.73-.24l-1.52.05-.31-.47.84-3.04c.45 0 1.26.02 2.41.05 1.15.03 2.27.05 3.35.05 1.29 0 2.64-.03 4.06-.1 1.41-.07 2.4-.12 2.96-.16 3.42 0 6.06.56 7.93 1.68 1.87 1.12 2.8 2.76 2.8 4.92 0 3.63-2.04 6.49-6.12 8.58l2.25 4.66c1.15 2.37 2.41 3.56 3.77 3.56l.42.63-.73 2.72-6.12.42c-1.12 0-2.02-.29-2.7-.86s-1.21-1.53-1.6-2.85l-2.04-6.49h-2.62l-.44 3.3zm-18.53-11.41c1.15 0 2.31-.04 3.48-.1s1.75-.12 1.75-.16l.16 2.46c-.66.45-1.19 1-1.57 1.65-.38.65-.66 1.47-.84 2.49-.21 1.15-.42 2.56-.63 4.21-.21 1.66-.31 2.73-.31 3.22l.05 1.83-.63.73c0 .03-.55.23-1.65.58-1.1.35-2.54.66-4.32.94-1.78.28-3.82.42-6.12.42-4.29 0-7.64-1.23-10.05-3.69-2.41-2.46-3.61-5.91-3.61-10.34 0-4.33.77-8.06 2.3-11.2 1.54-3.14 3.75-5.54 6.65-7.2 2.9-1.66 6.35-2.49 10.36-2.49 1.26 0 2.7.1 4.32.29 1.62.19 3.04.39 4.24.6 1.2.21 1.98.35 2.33.42l.26.84c-.07.21-.26.74-.58 1.6-.31.85-.67 2.02-1.07 3.48-.4 1.47-.76 3.07-1.07 4.82l-6.39.42c.07-.24.18-.75.34-1.52.16-.77.24-1.36.24-1.78 0-2.16-1.5-3.25-4.5-3.25-5.09 0-7.64 4.73-7.64 14.19 0 5.97 1.83 8.95 5.5 8.95.73 0 1.4-.08 2.02-.24.61-.16 1.09-.31 1.44-.47.35-.16.58-.27.68-.34l.47-4.29c.07-.49.1-.82.1-.99 0-.52-.13-.88-.39-1.07-.26-.19-.71-.29-1.33-.29l-2.15.05-.31-.58 1.1-4.24 7.37.05zm-47.69 11.93c0 .59.14.99.42 1.18s.8.29 1.57.29c1.4 0 2.44-.1 3.14-.31.7-.21 1.24-.61 1.62-1.2.38-.59.75-1.55 1.1-2.88l4.92-.37.42.58c-.14.45-.45 1.48-.92 3.09-.47 1.61-.9 3.3-1.28 5.08l-.63.58c-.8-.03-2.58-.09-5.34-.16s-5.41-.1-7.96-.1c-1.74 0-3.48.06-5.21.18s-2.84.2-3.32.24l.79-3.51c1.12-.17 1.9-.51 2.36-.99.45-.49.75-1.34.89-2.56l1.83-14.08c.03-.28.05-.63.05-1.05 0-.45-.07-.76-.21-.92-.14-.16-.4-.24-.79-.24l-1.15.05-.42-.52.73-3.04c.63.03 1.83.07 3.61.1 1.78.03 3.66.05 5.65.05 5.93 0 10.26-.17 12.98-.52l.37.58c-.14.45-.43 1.49-.86 3.11-.44 1.62-.78 3.24-1.02 4.84l-5.39.31c.03-.14.1-.44.21-.89.1-.45.16-.84.16-1.15 0-.73-.28-1.22-.84-1.47-.56-.24-1.66-.37-3.3-.37-.7 0-1.15.07-1.36.21-.21.14-.37.45-.47.94l-.89 5.13h3.56c.87 0 1.78-.03 2.72-.1.94-.07 1.61-.12 1.99-.16l.37.52-1.1 4.34c-.35 0-1.02-.02-2.02-.05-.99-.03-2.03-.05-3.11-.05-.84 0-1.9.09-3.19.26l-.31 2.3c-.25 1.3-.37 2.21-.37 2.73zm-34.65-14.55c-.17-.91-.42-1.57-.73-1.99-.31-.42-.8-.65-1.47-.68l-.26-.42.73-2.98c.38 0 1.12.02 2.2.05 1.08.03 2.22.05 3.4.05 1.57 0 3.15-.03 4.74-.1 1.59-.07 2.61-.12 3.06-.16l.26.37-.63 3.19c-1.22.1-2.03.3-2.43.58-.4.28-.6.75-.6 1.41 0 1.36.11 3.82.34 7.38.23 3.56.39 5.95.5 7.17h.84c.87-1.95 2.07-4.89 3.59-8.82 1.52-3.93 2.28-6.19 2.28-6.78 0-.59-.47-.89-1.41-.89h-1.2l-.26-.37.68-3.14c.42.03 1.24.07 2.46.1s2.53.05 3.93.05c1.19 0 2.25-.02 3.19-.05.94-.04 1.57-.05 1.88-.05l-.68 3.35c-.52.14-.92.35-1.2.63-.28.28-.59.8-.94 1.57l-8.95 20.68-10.52.73c-.21-1.68-.64-5.03-1.28-10.08-.67-5.03-1.17-8.63-1.52-10.8zm-6.8-.63c-.45 2.44-.97 5.54-1.54 9.29-.58 3.75-.86 6.01-.86 6.78 0 .59.1 1 .29 1.23.19.23.5.34.92.34.42 0 .76-.02 1.02-.05.26-.03.43-.05.5-.05l.21.37-.79 3.19c-.52 0-1.47-.03-2.85-.08-1.38-.05-2.68-.08-3.9-.08-1.08 0-2.36.03-3.82.1-1.47.07-2.43.12-2.88.16l.68-3.25c1.19-.24 1.99-.58 2.41-1.02.42-.44.7-1.23.84-2.38l1.83-14.5c.03-.21.05-.49.05-.84 0-.45-.1-.77-.29-.94-.19-.17-.53-.26-1.02-.26h-1.15c-.07-.07-.17-.24-.31-.52l.68-2.88 6.49.05c1.26 0 2.59-.03 4-.08 1.41-.05 2.4-.1 2.96-.13l-.68 3.4c-1.01.14-1.68.34-2.02.6-.35.27-.6.79-.77 1.55zm-28.79-.89c-.98.03-1.71.18-2.2.45-.49.26-.88.76-1.18 1.49-.3.73-.62 1.92-.97 3.56l-4.87.26c.1-.63.34-2.01.71-4.14.37-2.13.67-4.14.92-6.02l.63-.52 4.71.47h13.14l4.92-.47.47.52c-.24 2.34-.45 4.42-.63 6.26-.17 1.83-.28 3.04-.31 3.64l-4.76.26.05-1.99c0-1.12-.08-1.93-.24-2.43-.16-.51-.43-.85-.81-1.02-.38-.17-.98-.28-1.78-.31l-.42 2.67c-.17 1.15-.52 3.55-1.05 7.2-.52 3.65-.79 5.8-.79 6.46 0 .73.15 1.26.45 1.6.3.33.78.5 1.44.5.52 0 .99-.02 1.39-.05.4-.03.67-.07.81-.1l.16.21-.78 3.56c-.63-.03-1.77-.08-3.43-.13-1.66-.05-3.24-.08-4.74-.08-1.08 0-2.56.05-4.42.16-1.87.1-3.1.17-3.69.21l.73-3.51c1.22-.1 2.14-.27 2.75-.5.61-.23 1.05-.57 1.31-1.02.26-.45.45-1.17.55-2.15l1.93-15.04zm-24.87 17.64c3.52 0 5.29-3.75 5.29-11.25 0-4.12-1.27-6.18-3.82-6.18-3.42 0-5.13 3.73-5.13 11.2 0 4.16 1.22 6.23 3.66 6.23zm-1.1 4.66c-3.56 0-6.34-.96-8.35-2.88s-3.01-4.66-3.01-8.22c0-5.1 1.33-9.06 3.98-11.91 2.65-2.84 6.39-4.27 11.2-4.27 3.63 0 6.44.93 8.43 2.8 1.99 1.87 2.98 4.56 2.98 8.09 0 5.1-1.34 9.1-4.03 12.01-2.68 2.93-6.42 4.38-11.2 4.38zm-34.81.05c-.87-5.34-1.76-10.19-2.67-14.55l-.31-1.67h-.52c-1.15 6.98-1.73 10.75-1.73 11.31 0 .7.4 1.05 1.2 1.05l1.2-.05.26.31-.89 3.25-2.04-.05-3.66-.1c-.73 0-1.68.04-2.83.13-1.15.09-1.8.15-1.94.18l.73-3.4c.77-.07 1.36-.31 1.78-.73.42-.42.75-1.1.99-2.04.49-2.16 1.16-5.24 2.02-9.24.85-4 1.28-6.19 1.28-6.57 0-.42-.17-.72-.5-.89-.33-.17-1-.31-2.02-.42l-.31-.31.79-3.19c2.93.14 4.9.21 5.91.21.73 0 2.72-.05 5.97-.16.38 3.56 1.03 8.22 1.94 13.98h.52c2.44-5.69 4.34-10.31 5.71-13.87l4.71.05c1.05 0 1.83-.02 2.36-.05 2.48-.14 3.82-.21 4.03-.21l.26.16-.68 3.3c-1.15.04-1.93.19-2.33.47-.4.28-.65.82-.76 1.62-.14 1.29-.29 3.69-.45 7.2-.16 3.51-.24 6.13-.24 7.88 0 .94.12 1.6.37 1.96.24.37.65.55 1.2.55l1.2-.05c.14.14.21.24.21.31l-.73 3.25-4.5-.1c-1.01 0-2.36.03-4.06.1-1.69.07-2.87.14-3.53.21l.84-3.45c.77-.07 1.34-.26 1.73-.58.38-.31.63-.79.73-1.41l.73-7.43c.03-.84.12-1.88.26-3.14h-.52l-2.36 5.34c-1.92 4.29-3.47 7.8-4.66 10.52l-4.69.32zm-28.26-4.71c3.52 0 5.29-3.75 5.29-11.25 0-4.12-1.27-6.18-3.82-6.18-3.42 0-5.13 3.73-5.13 11.2-.01 4.16 1.21 6.23 3.66 6.23zm-1.1 4.66c-3.56 0-6.34-.96-8.35-2.88s-3.01-4.66-3.01-8.22c0-5.1 1.33-9.06 3.98-11.91 2.65-2.84 6.39-4.27 11.2-4.27 3.63 0 6.44.93 8.43 2.8 1.99 1.87 2.98 4.56 2.98 8.09 0 5.1-1.34 9.1-4.03 12.01-2.69 2.93-6.42 4.38-11.2 4.38zm-27.54-22.3c-.98.03-1.71.18-2.2.45-.49.26-.88.76-1.18 1.49-.3.73-.62 1.92-.97 3.56l-4.87.26c.1-.63.34-2.01.71-4.14.37-2.13.67-4.14.92-6.02l.63-.52 4.71.47h13.14l4.92-.47.47.52c-.24 2.34-.45 4.42-.63 6.26-.17 1.83-.28 3.04-.31 3.64l-4.76.26.05-1.99c0-1.12-.08-1.93-.24-2.43-.16-.51-.43-.85-.81-1.02-.38-.17-.98-.28-1.78-.31l-.42 2.67c-.17 1.15-.52 3.55-1.05 7.2-.52 3.65-.79 5.8-.79 6.46 0 .73.15 1.26.45 1.6.3.33.78.5 1.44.5.52 0 .99-.02 1.39-.05.4-.03.67-.07.81-.1l.16.21-.79 3.56c-.63-.03-1.77-.08-3.43-.13-1.66-.05-3.24-.08-4.74-.08-1.08 0-2.56.05-4.42.16-1.87.1-3.1.17-3.69.21l.73-3.51c1.22-.1 2.14-.27 2.75-.5.61-.23 1.05-.57 1.31-1.02.26-.45.44-1.17.55-2.15l1.94-15.04zm-27.21 13.98c0 2.37 1.06 3.56 3.19 3.56 1.22 0 2.15-.31 2.8-.94.65-.63 1.06-1.66 1.23-3.09.28-2.02.57-4.34.86-6.94.3-2.6.5-4.42.6-5.47l.1-1.1c0-.42-.07-.71-.21-.86-.14-.16-.38-.24-.73-.24l-1.1.05-.1-.16.84-3.4c.38 0 1.06.03 2.04.08s1.95.08 2.93.08c1.29 0 2.49-.02 3.59-.05 1.1-.04 1.84-.07 2.22-.1l-.73 3.4c-.94.28-1.56.52-1.86.73-.3.21-.46.58-.5 1.1l-1.47 11.83c-.45 3.32-1.66 5.78-3.61 7.41-1.95 1.62-4.73 2.43-8.32 2.43-3.18 0-5.56-.58-7.14-1.73-1.59-1.15-2.4-2.91-2.43-5.29 0-.52.05-1.06.16-1.62l1.57-12.56c.03-.28.05-.63.05-1.05 0-.45-.07-.76-.21-.92-.14-.16-.42-.24-.84-.24l-1.26.05-.05-.16.79-3.4c.45.03 1.34.07 2.67.1 1.33.03 2.79.05 4.4.05 1.05 0 2.12-.03 3.22-.08s1.86-.08 2.28-.08l-.79 3.45c-.8.07-1.39.26-1.75.58-.37.31-.58.8-.65 1.47l-1.67 11.78-.12 1.33zm-26.33-7.43c.42 0 1.12-.03 2.09-.1l1.15-.05-1.05-10.63h-.94l-4.34 10.78h3.09zm12.98 7.95c.17 1.22.49 2.09.94 2.59.45.51 1.15.83 2.09.97l.21.42-.79 3.51c-.45 0-1.33-.02-2.62-.05-1.29-.03-2.63-.05-4.03-.05-1.88 0-3.75.04-5.6.13-1.85.09-3.04.15-3.56.18l-.26-.42.68-3.66c1.12-.1 1.95-.23 2.49-.37.54-.14.91-.33 1.1-.58.19-.24.29-.61.29-1.1l-.05-1.26-.31-3.19-4.24-.1c-.56 0-1.33.04-2.33.13-.99.09-1.72.15-2.17.18l-1.2 3.35c-.31.77-.47 1.33-.47 1.68 0 .77.56 1.15 1.68 1.15h1.88l.26.37-.84 3.72c-.49-.03-1.54-.08-3.14-.13-1.61-.05-3.07-.08-4.4-.08l-6.44.05.84-3.87c.73-.17 1.37-.51 1.91-1.02.54-.51 1.02-1.25 1.44-2.22l11.62-26.43 10.68-.84.63.42c.28 2.06.84 6.2 1.68 12.43.82 6.22 1.5 10.92 2.03 14.09zM243.6 38.68h4.13c1.07 0 2.02-.18 2.84-.53.83-.36 1.52-.92 2.09-1.68.57-.76 1-1.74 1.29-2.94.26-.94.47-1.78.63-2.53.16-.74.32-1.49.46-2.24.15-.75.3-1.57.46-2.48.29-1.78.06-3.08-.7-3.89s-1.95-1.21-3.57-1.21h-3.89l-3.74 17.5zm-10.89 8.26c-.36 0-.64-.12-.85-.36s-.28-.54-.22-.9l6.75-31.49c.06-.36.24-.66.53-.9.29-.24.62-.36.97-.36h12.39c2.07 0 4.02.29 5.86.87 1.83.58 3.41 1.43 4.74 2.55a9.62 9.62 0 0 1 2.89 4.15c.6 1.65.7 3.56.32 5.73a80.61 80.61 0 0 1-.68 3.69 94.35 94.35 0 0 1-.87 3.64c-.78 3.05-1.88 5.56-3.3 7.53-1.43 1.98-3.28 3.44-5.56 4.4-2.28.96-5.13 1.43-8.53 1.43h-14.44zm-29.49 0c-.36 0-.64-.12-.85-.36s-.28-.54-.22-.9l6.75-31.49c.06-.36.24-.66.53-.9.29-.24.62-.36.97-.36h8.07c.32 0 .59.12.8.36.21.24.28.54.22.9l-5.15 24.1h14.09c.36 0 .63.12.83.36.19.24.24.54.15.9l-1.26 6.12c-.07.36-.25.66-.56.9-.31.24-.64.36-1 .36h-23.37zm-19.68-7.78c1.39 0 2.61-.41 3.64-1.24 1.04-.83 1.78-2.15 2.24-3.96.36-1.39.66-2.75.92-4.06.26-1.31.5-2.65.73-4.01.23-1.2.22-2.19-.02-2.96-.24-.78-.66-1.34-1.26-1.7-.6-.36-1.37-.53-2.31-.53-1.36 0-2.57.41-3.62 1.24-1.05.83-1.81 2.15-2.26 3.96a154.145 154.145 0 0 0-1.7 8.07c-.23 1.2-.22 2.19.02 2.96.24.78.68 1.34 1.31 1.7.63.36 1.4.53 2.31.53zm4.67 10.94c-.55 0-.94-.14-1.17-.41-.23-.28-.4-.51-.53-.7l-1.07-1.94c-1.13.26-2.35.39-3.64.39-3.08 0-5.66-.49-7.75-1.46s-3.58-2.44-4.47-4.4c-.89-1.96-1.09-4.4-.61-7.31.26-1.36.55-2.76.87-4.2.32-1.44.65-2.87.97-4.3.71-2.88 1.94-5.31 3.67-7.29 1.73-1.98 3.85-3.47 6.37-4.49 2.51-1.02 5.3-1.53 8.38-1.53 3.05 0 5.6.51 7.68 1.53 2.07 1.02 3.56 2.52 4.47 4.49.91 1.98 1.1 4.41.58 7.29a83.02 83.02 0 0 1-.8 4.3c-.31 1.44-.64 2.84-1 4.2-1 3.82-2.82 6.83-5.44 9.04l2.62 5.3c.06.16.08.31.05.44-.03.29-.18.54-.44.75-.26.21-.52.32-.78.32h-7.96z" class="qagmainst2"></path></svg>