<svg xmlns="http://www.w3.org/2000/svg" xmlns:xlink="http://www.w3.org/1999/xlink" width="22" zoomAndPan="magnify" viewBox="0 0 90 89.999999" height="22" preserveAspectRatio="xMidYMid meet" version="1.0"><defs><clipPath id="628fabc2ab"><path d="M 5.382812 16.621094 L 87.882812 16.621094 L 87.882812 75.871094 L 5.382812 75.871094 Z M 5.382812 16.621094 " clip-rule="nonzero"/></clipPath><clipPath id="808727a905"><path d="M 0 11.746094 L 31.0625 11.746094 L 31.0625 78.253906 L 0 78.253906 Z M 0 11.746094 " clip-rule="nonzero"/></clipPath><clipPath id="d53da9bc27"><path d="M 2.242188 26.203125 L 27.742188 26.203125 L 27.742188 60.703125 L 2.242188 60.703125 Z M 2.242188 26.203125 " clip-rule="nonzero"/></clipPath></defs><g clip-path="url(#628fabc2ab)"><path fill="#000000" d="M 47.507812 16.617188 L 47.507812 16.621094 C 47.183594 16.625 46.890625 16.632812 46.574219 16.640625 C 46.300781 16.636719 46.046875 16.628906 45.765625 16.621094 L 45.761719 16.621094 C 45.648438 16.617188 45.542969 16.636719 45.4375 16.664062 C 36.191406 16.871094 29.726562 17.445312 25.933594 18.476562 C 24.5625 18.847656 23.566406 19.984375 22.550781 21.371094 C 21.53125 22.765625 20.558594 24.480469 19.675781 26.21875 C 18.679688 28.183594 17.867188 30.023438 17.222656 31.546875 C 16.070312 30.578125 15.128906 29.910156 14.277344 29.550781 C 13.707031 29.308594 13.207031 29.3125 12.605469 29.324219 C 12.003906 29.335938 11.34375 29.402344 10.695312 29.507812 C 10.042969 29.609375 9.40625 29.75 8.855469 29.917969 C 8.308594 30.082031 7.878906 30.171875 7.394531 30.664062 C 6.835938 31.234375 6.441406 32.007812 6.070312 32.828125 C 5.882812 33.238281 5.730469 33.640625 5.625 34.023438 C 5.570312 34.214844 5.527344 34.402344 5.515625 34.621094 C 5.5 34.835938 5.460938 35.121094 5.738281 35.523438 C 5.996094 35.902344 6.109375 35.90625 6.308594 36.03125 C 6.503906 36.160156 6.738281 36.292969 7.019531 36.4375 C 7.578125 36.722656 8.316406 37.035156 9.1875 37.292969 C 10.339844 37.640625 11.734375 37.894531 13.207031 37.835938 C 13.121094 37.929688 13.042969 38.023438 12.953125 38.117188 C 11.429688 39.8125 9.878906 41.425781 9.175781 42.726562 C 9.105469 42.859375 9.0625 43.003906 9.050781 43.152344 C 8.367188 53.25 8.386719 61.492188 9.132812 67.914062 C 9.191406 68.441406 9.640625 68.839844 10.171875 68.839844 L 11.238281 68.839844 L 11.238281 71.519531 C 11.238281 73.914062 13.199219 75.875 15.589844 75.875 L 20.636719 75.875 C 23.027344 75.875 24.988281 73.914062 24.988281 71.519531 L 24.988281 68.839844 L 26.707031 68.839844 C 27.054688 68.839844 27.382812 68.664062 27.578125 68.371094 C 27.953125 67.804688 28.390625 67.558594 29.238281 67.515625 C 30.082031 67.472656 35.992188 67.46875 45.6875 67.511719 C 45.710938 67.511719 45.730469 67.519531 45.753906 67.519531 C 46.308594 67.515625 46.519531 67.515625 47.050781 67.511719 C 47.25 67.515625 47.316406 67.511719 47.515625 67.515625 C 47.523438 67.515625 47.535156 67.511719 47.542969 67.511719 C 57.269531 67.46875 63.1875 67.472656 64.03125 67.519531 C 64.882812 67.5625 65.3125 67.808594 65.691406 68.375 C 65.886719 68.667969 66.214844 68.839844 66.5625 68.839844 L 68.28125 68.839844 L 68.28125 71.519531 C 68.28125 73.914062 70.242188 75.875 72.632812 75.875 L 77.679688 75.875 C 80.070312 75.875 82.035156 73.914062 82.035156 71.519531 L 82.035156 68.839844 L 83.097656 68.839844 C 83.628906 68.839844 84.078125 68.445312 84.140625 67.914062 C 84.882812 61.496094 84.90625 53.253906 84.21875 43.15625 C 84.207031 43.007812 84.164062 42.863281 84.09375 42.730469 C 83.390625 41.429688 81.839844 39.8125 80.316406 38.121094 C 80.226562 38.023438 80.148438 37.933594 80.058594 37.835938 C 81.535156 37.894531 82.929688 37.640625 84.082031 37.292969 C 84.949219 37.035156 85.6875 36.722656 86.25 36.4375 C 86.53125 36.292969 86.765625 36.160156 86.960938 36.03125 C 87.15625 35.90625 87.273438 35.902344 87.53125 35.523438 C 87.804688 35.121094 87.765625 34.835938 87.753906 34.621094 C 87.738281 34.402344 87.695312 34.21875 87.640625 34.023438 C 87.539062 33.644531 87.382812 33.238281 87.195312 32.828125 C 86.824219 32.007812 86.429688 31.234375 85.875 30.664062 C 85.390625 30.171875 84.957031 30.082031 84.410156 29.917969 C 83.859375 29.75 83.222656 29.609375 82.570312 29.507812 C 81.921875 29.40625 81.265625 29.339844 80.664062 29.324219 L 80.660156 29.324219 C 80.058594 29.316406 79.558594 29.308594 78.992188 29.550781 C 78.136719 29.910156 77.199219 30.578125 76.042969 31.546875 C 75.402344 30.023438 74.589844 28.183594 73.59375 26.222656 C 72.710938 24.484375 71.738281 22.765625 70.71875 21.375 C 69.703125 19.984375 68.707031 18.851562 67.335938 18.476562 C 63.546875 17.449219 57.085938 16.878906 47.847656 16.667969 C 47.738281 16.636719 47.625 16.613281 47.507812 16.617188 Z M 46.578125 18.734375 C 56.421875 18.921875 63.246094 19.539062 66.78125 20.5 C 67.191406 20.609375 68.125 21.371094 69.027344 22.609375 C 69.933594 23.847656 70.871094 25.492188 71.722656 27.167969 C 73.429688 30.523438 74.789062 33.996094 75.179688 34.9375 C 75.460938 35.636719 75.964844 36.28125 76.597656 37.050781 C 77.230469 37.824219 77.988281 38.675781 78.757812 39.523438 C 80.222656 41.152344 81.691406 42.835938 82.140625 43.582031 C 82.765625 53 82.753906 60.703125 82.128906 66.742188 L 67.03125 66.742188 C 66.296875 65.953125 65.273438 65.476562 64.132812 65.417969 C 62.90625 65.359375 57.109375 65.367188 47.023438 65.414062 C 36.316406 65.363281 30.402344 65.355469 29.136719 65.414062 C 27.996094 65.476562 26.976562 65.949219 26.238281 66.742188 L 11.140625 66.742188 C 10.519531 60.699219 10.5 52.996094 11.128906 43.582031 C 11.578125 42.835938 13.046875 41.152344 14.515625 39.523438 C 15.28125 38.671875 16.039062 37.820312 16.671875 37.050781 C 17.304688 36.277344 17.808594 35.636719 18.09375 34.9375 C 18.480469 33.992188 19.839844 30.523438 21.546875 27.167969 C 22.398438 25.488281 23.335938 23.847656 24.242188 22.609375 C 25.148438 21.367188 26.082031 20.605469 26.488281 20.496094 C 30.011719 19.542969 36.792969 18.925781 46.578125 18.734375 Z M 45.753906 21.304688 C 45.683594 21.304688 45.617188 21.316406 45.546875 21.328125 C 36.613281 21.441406 30.738281 21.84375 27.699219 22.667969 C 27.679688 22.671875 27.664062 22.675781 27.640625 22.6875 C 26.363281 23.113281 25.375 24.210938 24.429688 25.785156 C 23.445312 27.429688 22.148438 30.578125 20.378906 35.449219 C 20.339844 35.558594 20.320312 35.664062 20.3125 35.777344 C 20.304688 36.121094 20.476562 36.421875 20.617188 36.578125 C 20.761719 36.730469 20.882812 36.796875 20.984375 36.851562 C 21.1875 36.953125 21.347656 36.992188 21.527344 37.039062 C 21.882812 37.121094 22.3125 37.179688 22.882812 37.238281 C 24.015625 37.355469 25.664062 37.445312 27.855469 37.519531 C 31.882812 37.65625 37.96875 37.71875 45.675781 37.730469 C 45.699219 37.734375 45.722656 37.742188 45.746094 37.742188 C 46.085938 37.742188 46.300781 37.738281 46.636719 37.738281 C 46.964844 37.738281 47.183594 37.742188 47.523438 37.742188 C 47.546875 37.742188 47.570312 37.734375 47.597656 37.730469 C 55.304688 37.71875 61.386719 37.65625 65.414062 37.519531 C 67.605469 37.445312 69.253906 37.355469 70.386719 37.238281 C 70.953125 37.179688 71.382812 37.121094 71.746094 37.039062 C 71.921875 36.992188 72.082031 36.953125 72.285156 36.851562 C 72.386719 36.796875 72.507812 36.730469 72.652344 36.578125 C 72.792969 36.421875 72.964844 36.121094 72.953125 35.777344 C 72.953125 35.664062 72.925781 35.558594 72.890625 35.449219 C 71.121094 30.578125 69.824219 27.429688 68.839844 25.785156 C 67.894531 24.210938 66.90625 23.109375 65.628906 22.683594 C 65.605469 22.675781 65.589844 22.671875 65.570312 22.667969 C 62.527344 21.84375 56.65625 21.441406 47.722656 21.328125 C 47.65625 21.316406 47.585938 21.304688 47.515625 21.304688 C 47.207031 21.308594 46.933594 21.3125 46.636719 21.316406 C 46.335938 21.3125 46.0625 21.308594 45.753906 21.304688 Z M 46.648438 23.414062 C 56.105469 23.511719 62.347656 23.980469 64.984375 24.683594 C 65.46875 24.855469 66.234375 25.519531 67.039062 26.867188 C 67.75 28.046875 68.976562 30.972656 70.507812 35.101562 C 70.378906 35.117188 70.335938 35.136719 70.175781 35.152344 C 69.132812 35.257812 67.511719 35.351562 65.34375 35.421875 C 61.175781 35.5625 54.855469 35.632812 46.636719 35.640625 C 38.414062 35.632812 32.089844 35.566406 27.925781 35.421875 C 25.757812 35.351562 24.132812 35.257812 23.09375 35.152344 C 22.933594 35.136719 22.890625 35.117188 22.761719 35.101562 C 24.289062 30.972656 25.519531 28.046875 26.226562 26.867188 C 27.035156 25.519531 27.800781 24.855469 28.285156 24.683594 C 30.925781 23.980469 37.175781 23.511719 46.648438 23.414062 Z M 12.644531 31.421875 C 13.117188 31.414062 13.511719 31.5 13.464844 31.484375 C 13.957031 31.6875 14.882812 32.304688 16.054688 33.300781 C 16.164062 33.394531 16.289062 33.453125 16.417969 33.496094 C 16.355469 33.652344 16.191406 34.050781 16.152344 34.144531 C 16.078125 34.320312 15.730469 34.839844 15.277344 35.425781 C 15.148438 35.417969 15.027344 35.425781 14.902344 35.464844 C 13.15625 35.96875 11.269531 35.726562 9.785156 35.285156 C 9.046875 35.0625 8.410156 34.792969 7.964844 34.566406 C 7.851562 34.507812 7.792969 34.46875 7.703125 34.417969 C 7.769531 34.210938 7.851562 33.972656 7.980469 33.695312 C 8.269531 33.046875 8.734375 32.335938 8.855469 32.183594 C 8.898438 32.179688 9.152344 32.019531 9.46875 31.921875 C 9.886719 31.796875 10.449219 31.667969 11.019531 31.582031 C 11.589844 31.488281 12.175781 31.433594 12.644531 31.421875 Z M 80.621094 31.421875 C 81.09375 31.433594 81.679688 31.488281 82.25 31.582031 C 82.816406 31.667969 83.378906 31.796875 83.800781 31.921875 C 84.117188 32.019531 84.371094 32.179688 84.414062 32.183594 C 84.535156 32.335938 85 33.046875 85.289062 33.695312 C 85.414062 33.972656 85.5 34.210938 85.566406 34.417969 C 85.476562 34.46875 85.417969 34.507812 85.304688 34.566406 C 84.859375 34.792969 84.222656 35.0625 83.480469 35.285156 C 82 35.726562 80.109375 35.96875 78.367188 35.464844 C 78.242188 35.425781 78.117188 35.417969 77.996094 35.425781 C 77.542969 34.84375 77.191406 34.324219 77.117188 34.148438 C 77.082031 34.050781 76.910156 33.652344 76.851562 33.496094 C 76.980469 33.453125 77.105469 33.394531 77.210938 33.300781 C 78.386719 32.304688 79.308594 31.6875 79.804688 31.484375 C 79.757812 31.5 80.152344 31.414062 80.621094 31.421875 Z M 16.226562 45.144531 C 15.78125 45.144531 15.289062 45.351562 14.996094 45.746094 C 14.699219 46.136719 14.644531 46.664062 14.769531 47.09375 L 16.089844 51.605469 C 16.34375 52.457031 17.011719 52.960938 17.902344 52.960938 L 32.125 52.960938 C 32.570312 52.960938 33.0625 52.757812 33.355469 52.359375 C 33.652344 51.96875 33.707031 51.441406 33.582031 51.011719 L 32.261719 46.503906 C 32.007812 45.648438 31.339844 45.144531 30.449219 45.144531 Z M 37.589844 45.144531 C 36.820312 45.144531 36.054688 45.472656 35.625 46.105469 C 35.195312 46.738281 35.171875 47.570312 35.453125 48.289062 L 36.351562 50.585938 C 36.917969 52.019531 38.292969 52.960938 39.835938 52.960938 L 53.433594 52.960938 C 54.976562 52.960938 56.355469 52.019531 56.914062 50.585938 L 57.816406 48.289062 C 58.097656 47.570312 58.074219 46.738281 57.644531 46.105469 C 57.214844 45.472656 56.449219 45.144531 55.675781 45.144531 Z M 62.820312 45.144531 C 61.929688 45.144531 61.261719 45.648438 61.007812 46.503906 L 59.6875 51.011719 C 59.5625 51.441406 59.617188 51.96875 59.914062 52.359375 C 60.210938 52.757812 60.699219 52.960938 61.144531 52.960938 L 75.367188 52.960938 C 76.257812 52.960938 76.925781 52.457031 77.179688 51.605469 L 78.5 47.09375 C 78.625 46.664062 78.566406 46.136719 78.273438 45.746094 C 77.980469 45.351562 77.488281 45.144531 77.042969 45.144531 Z M 16.996094 47.246094 L 30.292969 47.246094 L 31.351562 50.863281 L 18.058594 50.863281 Z M 37.589844 47.246094 L 55.675781 47.246094 C 55.921875 47.246094 55.921875 47.300781 55.914062 47.289062 C 55.902344 47.273438 55.957031 47.296875 55.867188 47.519531 L 54.964844 49.820312 C 54.789062 50.269531 53.921875 50.859375 53.433594 50.859375 L 45.746094 50.859375 C 45.742188 50.859375 45.738281 50.863281 45.738281 50.863281 L 39.835938 50.863281 C 39.347656 50.863281 38.480469 50.269531 38.300781 49.820312 L 37.402344 47.519531 C 37.316406 47.296875 37.363281 47.273438 37.355469 47.289062 C 37.347656 47.300781 37.347656 47.246094 37.589844 47.246094 Z M 62.976562 47.246094 L 76.273438 47.246094 L 75.210938 50.863281 L 61.917969 50.863281 Z M 36.945312 56.734375 C 35.617188 56.734375 34.28125 57.292969 33.34375 58.238281 L 31.335938 60.257812 C 31.101562 60.496094 30.90625 60.75 30.777344 61.074219 C 30.648438 61.402344 30.597656 61.839844 30.765625 62.242188 C 30.933594 62.648438 31.28125 62.921875 31.605469 63.0625 C 31.921875 63.199219 32.242188 63.238281 32.574219 63.238281 L 60.695312 63.238281 C 61.027344 63.238281 61.34375 63.195312 61.664062 63.0625 C 61.984375 62.921875 62.335938 62.648438 62.503906 62.242188 C 62.667969 61.839844 62.621094 61.402344 62.492188 61.074219 C 62.363281 60.75 62.167969 60.496094 61.933594 60.257812 L 59.925781 58.238281 C 58.988281 57.292969 57.652344 56.734375 56.324219 56.734375 Z M 17.574219 58.203125 C 17.195312 58.195312 16.84375 58.398438 16.652344 58.722656 C 16.460938 59.050781 16.460938 59.453125 16.652344 59.78125 C 16.84375 60.109375 17.195312 60.308594 17.574219 60.300781 L 21.292969 60.300781 C 21.671875 60.308594 22.019531 60.109375 22.210938 59.78125 C 22.402344 59.453125 22.402344 59.050781 22.210938 58.722656 C 22.019531 58.398438 21.671875 58.199219 21.292969 58.203125 Z M 71.976562 58.203125 C 71.597656 58.195312 71.246094 58.398438 71.054688 58.722656 C 70.863281 59.050781 70.863281 59.453125 71.054688 59.78125 C 71.246094 60.109375 71.597656 60.308594 71.976562 60.300781 L 75.695312 60.300781 C 76.074219 60.308594 76.425781 60.109375 76.617188 59.78125 C 76.808594 59.453125 76.808594 59.050781 76.617188 58.722656 C 76.425781 58.398438 76.074219 58.199219 75.695312 58.203125 Z M 36.945312 58.835938 L 56.324219 58.835938 C 56.847656 58.835938 58.070312 59.34375 58.441406 59.714844 L 59.855469 61.140625 L 33.414062 61.140625 L 34.832031 59.714844 C 35.199219 59.34375 36.421875 58.835938 36.945312 58.835938 Z M 13.332031 68.839844 L 22.890625 68.839844 L 22.890625 71.519531 C 22.890625 72.777344 21.894531 73.777344 20.636719 73.777344 L 15.589844 73.777344 C 14.332031 73.777344 13.332031 72.777344 13.332031 71.519531 Z M 70.375 68.839844 L 79.9375 68.839844 L 79.9375 71.519531 C 79.9375 72.777344 78.9375 73.777344 77.679688 73.777344 L 72.632812 73.777344 C 71.375 73.777344 70.375 72.777344 70.375 71.519531 L 70.375 68.839844 " fill-opacity="1" fill-rule="nonzero"/></g><g clip-path="url(#808727a905)"><path fill="#ffffff" d="M -30.566406 11.746094 L 31.0625 11.746094 L 31.0625 78.195312 L -30.566406 78.195312 Z M -30.566406 11.746094 " fill-opacity="1" fill-rule="nonzero"/></g><g clip-path="url(#d53da9bc27)"><path fill="#000000" d="M 2.800781 35.65625 L 14.273438 26.464844 C 14.300781 26.445312 14.335938 26.4375 14.367188 26.417969 C 14.429688 26.375 14.496094 26.34375 14.566406 26.3125 C 14.636719 26.285156 14.703125 26.265625 14.773438 26.25 C 14.847656 26.234375 14.917969 26.230469 14.996094 26.230469 C 15.066406 26.230469 15.128906 26.234375 15.199219 26.246094 C 15.277344 26.261719 15.347656 26.289062 15.421875 26.316406 C 15.488281 26.34375 15.550781 26.375 15.609375 26.414062 C 15.640625 26.4375 15.679688 26.441406 15.707031 26.464844 L 27.183594 35.65625 C 27.675781 36.054688 27.757812 36.777344 27.359375 37.269531 C 27.132812 37.554688 26.800781 37.703125 26.464844 37.703125 C 26.214844 37.703125 25.960938 37.621094 25.75 37.449219 L 16.136719 29.753906 L 16.132812 59.527344 C 16.132812 60.164062 15.617188 60.675781 14.984375 60.675781 C 14.347656 60.675781 13.835938 60.164062 13.835938 59.527344 L 13.84375 29.753906 L 4.234375 37.449219 C 4.019531 37.617188 3.769531 37.699219 3.515625 37.699219 C 3.179688 37.699219 2.847656 37.550781 2.617188 37.269531 C 2.226562 36.777344 2.304688 36.054688 2.800781 35.65625 Z M 2.800781 35.65625 " fill-opacity="1" fill-rule="nonzero"/></g></svg>