<svg xmlns="http://www.w3.org/2000/svg" xmlns:xlink="http://www.w3.org/1999/xlink" width="18" zoomAndPan="magnify" viewBox="0 0 90 89.999999" height="18" preserveAspectRatio="xMidYMid meet" version="1.0"><defs><clipPath id="943a6c0f08"><path d="M 2 8.242188 L 88 8.242188 L 88 80.242188 L 2 80.242188 Z M 2 8.242188 " clip-rule="nonzero"/></clipPath></defs><g clip-path="url(#943a6c0f08)"><path fill="#6c757d" d="M 49.347656 18.316406 C 52.207031 18.316406 54.53125 20.652344 54.53125 23.523438 C 54.53125 26.394531 52.207031 28.726562 49.347656 28.726562 C 46.488281 28.726562 44.164062 26.394531 44.164062 23.523438 C 44.164062 20.652344 46.488281 18.316406 49.347656 18.316406 Z M 49.347656 31.46875 C 53.71875 31.46875 57.273438 27.902344 57.273438 23.523438 C 57.273438 19.140625 53.71875 15.578125 49.347656 15.578125 C 44.980469 15.578125 41.425781 19.140625 41.425781 23.523438 C 41.425781 27.902344 44.980469 31.46875 49.347656 31.46875 Z M 51.121094 54.183594 C 55.128906 54.183594 58.390625 56.558594 58.390625 59.476562 C 58.390625 62.394531 55.128906 64.769531 51.121094 64.769531 C 47.109375 64.769531 43.847656 62.394531 43.847656 59.476562 C 43.847656 56.558594 47.109375 54.183594 51.121094 54.183594 Z M 51.121094 67.511719 C 56.640625 67.511719 61.128906 63.90625 61.128906 59.476562 C 61.128906 55.050781 56.640625 51.445312 51.121094 51.445312 C 45.597656 51.445312 41.109375 55.050781 41.109375 59.476562 C 41.109375 63.90625 45.597656 67.511719 51.121094 67.511719 Z M 16.460938 38.746094 C 19.316406 38.746094 21.644531 41.082031 21.644531 43.953125 C 21.644531 46.824219 19.316406 49.160156 16.460938 49.160156 C 13.601562 49.160156 11.273438 46.824219 11.273438 43.953125 C 11.273438 41.082031 13.601562 38.746094 16.460938 38.746094 Z M 16.460938 51.898438 C 20.828125 51.898438 24.382812 48.332031 24.382812 43.953125 C 24.382812 39.570312 20.828125 36.007812 16.460938 36.007812 C 12.089844 36.007812 8.535156 39.570312 8.535156 43.953125 C 8.535156 48.332031 12.089844 51.898438 16.460938 51.898438 Z M 28.070312 23.222656 C 30.929688 23.222656 33.253906 25.558594 33.253906 28.429688 C 33.253906 31.300781 30.929688 33.636719 28.070312 33.636719 C 25.210938 33.636719 22.882812 31.300781 22.882812 28.429688 C 22.882812 25.558594 25.210938 23.222656 28.070312 23.222656 Z M 28.070312 36.375 C 32.441406 36.375 35.996094 32.8125 35.996094 28.429688 C 35.996094 24.050781 32.441406 20.484375 28.070312 20.484375 C 23.699219 20.484375 20.144531 24.050781 20.144531 28.429688 C 20.144531 32.8125 23.699219 36.375 28.070312 36.375 Z M 30.972656 13.171875 C 36.164062 11.570312 41.421875 10.757812 46.59375 10.757812 C 63.542969 10.757812 76.507812 19.355469 81.839844 27.878906 C 84.808594 32.621094 85.46875 37.238281 83.699219 40.878906 C 82.835938 42.652344 80.382812 43.011719 76.699219 43.011719 L 74.039062 42.996094 C 70.789062 42.996094 65.359375 42.996094 64.5 48.0625 C 63.691406 52.84375 67.199219 55.21875 70.019531 57.128906 C 71.597656 58.199219 73.085938 59.207031 73.429688 60.339844 C 74.007812 62.238281 73.8125 64.054688 72.835938 65.878906 C 70.488281 70.265625 63.992188 73.589844 60.449219 74.660156 C 54.1875 76.542969 48.152344 77.5 42.515625 77.5 C 22.34375 77.5 9.804688 65.242188 6.6875 53.855469 C 1.441406 34.691406 10.519531 19.484375 30.972656 13.171875 Z M 4.042969 54.578125 C 7.425781 66.941406 20.910156 80.242188 42.515625 80.242188 C 48.421875 80.242188 54.722656 79.246094 61.242188 77.28125 C 64.785156 76.210938 72.273438 72.726562 75.25 67.171875 C 76.570312 64.707031 76.839844 62.140625 76.054688 59.546875 C 75.429688 57.484375 73.460938 56.152344 71.554688 54.863281 C 68.527344 52.808594 66.71875 51.359375 67.199219 48.519531 C 67.558594 46.410156 69.21875 45.734375 74.039062 45.734375 L 76.699219 45.75 C 79.570312 45.75 84.378906 45.75 86.164062 42.078125 C 88.359375 37.554688 87.652344 32 84.164062 26.425781 C 78.429688 17.265625 64.589844 8.019531 46.59375 8.019531 C 41.144531 8.019531 35.617188 8.871094 30.164062 10.554688 C 8.453125 17.253906 -1.554688 34.125 4.042969 54.578125 Z M 68.128906 25.964844 C 70.988281 25.964844 73.3125 28.300781 73.3125 31.167969 C 73.3125 34.039062 70.988281 36.375 68.128906 36.375 C 65.269531 36.375 62.941406 34.039062 62.941406 31.167969 C 62.941406 28.300781 65.269531 25.964844 68.128906 25.964844 Z M 68.128906 39.117188 C 72.5 39.117188 76.054688 35.550781 76.054688 31.167969 C 76.054688 26.789062 72.5 23.222656 68.128906 23.222656 C 63.757812 23.222656 60.203125 26.789062 60.203125 31.167969 C 60.203125 35.550781 63.757812 39.117188 68.128906 39.117188 " fill-opacity="1" fill-rule="nonzero"/></g></svg>