<svg xmlns="http://www.w3.org/2000/svg" xmlns:xlink="http://www.w3.org/1999/xlink" width="16" zoomAndPan="magnify" viewBox="0 0 90 89.999999" height="16" preserveAspectRatio="xMidYMid meet" version="1.0"><defs><clipPath id="00832687a5"><path d="M 26 3.355469 L 75 3.355469 L 75 76 L 26 76 Z M 26 3.355469 " clip-rule="nonzero"/></clipPath><clipPath id="802a953b68"><path d="M 20 72.917969 L 80.996094 72.917969 L 80.996094 86.574219 L 20 86.574219 Z M 20 72.917969 " clip-rule="nonzero"/></clipPath></defs><g clip-path="url(#00832687a5)"><path fill="#6c757d" d="M 71.910156 74.226562 C 71.910156 74.945312 72.496094 75.527344 73.210938 75.527344 C 73.929688 75.527344 74.511719 74.945312 74.511719 74.226562 L 74.511719 15.558594 C 74.511719 12.222656 73.144531 9.191406 70.949219 6.992188 C 68.75 4.796875 65.71875 3.429688 62.382812 3.429688 L 38.695312 3.429688 C 35.355469 3.429688 32.324219 4.796875 30.125 6.992188 C 27.929688 9.191406 26.566406 12.222656 26.566406 15.558594 L 26.566406 74.226562 C 26.566406 74.945312 27.148438 75.527344 27.863281 75.527344 C 28.582031 75.527344 29.164062 74.945312 29.164062 74.226562 L 29.164062 15.558594 C 29.164062 12.941406 30.234375 10.558594 31.964844 8.832031 C 33.691406 7.101562 36.074219 6.03125 38.695312 6.03125 L 62.382812 6.03125 C 65 6.03125 67.382812 7.101562 69.113281 8.832031 C 70.839844 10.558594 71.910156 12.941406 71.910156 15.558594 L 71.910156 74.226562 " fill-opacity="1" fill-rule="nonzero"/></g><g clip-path="url(#802a953b68)"><path fill="#6c757d" d="M 21.378906 72.929688 L 79.695312 72.929688 C 80.414062 72.929688 80.996094 73.507812 80.996094 74.226562 L 80.996094 85.273438 C 80.996094 85.992188 80.414062 86.574219 79.695312 86.574219 L 21.378906 86.574219 C 20.664062 86.574219 20.082031 85.992188 20.082031 85.273438 L 20.082031 74.226562 C 20.082031 73.507812 20.664062 72.929688 21.378906 72.929688 Z M 78.394531 75.527344 L 22.679688 75.527344 L 22.679688 83.972656 L 78.394531 83.972656 L 78.394531 75.527344 " fill-opacity="1" fill-rule="nonzero"/></g><path fill="#6c757d" d="M 39.820312 13.53125 L 61.253906 13.53125 C 62.636719 13.53125 63.890625 14.09375 64.800781 15.003906 C 65.710938 15.910156 66.273438 17.167969 66.273438 18.546875 L 66.273438 27.800781 C 66.273438 29.179688 65.710938 30.4375 64.800781 31.347656 C 63.890625 32.253906 62.636719 32.820312 61.253906 32.820312 L 39.820312 32.820312 C 38.4375 32.820312 37.183594 32.253906 36.273438 31.347656 C 35.367188 30.4375 34.800781 29.179688 34.800781 27.800781 L 34.800781 18.546875 C 34.800781 17.167969 35.367188 15.910156 36.273438 15.003906 C 37.183594 14.09375 38.4375 13.53125 39.820312 13.53125 Z M 61.253906 16.128906 L 39.820312 16.128906 C 39.15625 16.128906 38.550781 16.402344 38.113281 16.839844 C 37.671875 17.28125 37.402344 17.886719 37.402344 18.546875 L 37.402344 27.800781 C 37.402344 28.464844 37.671875 29.070312 38.113281 29.507812 C 38.550781 29.945312 39.15625 30.21875 39.820312 30.21875 L 61.253906 30.21875 C 61.917969 30.21875 62.523438 29.945312 62.964844 29.507812 C 63.402344 29.070312 63.675781 28.464844 63.675781 27.800781 L 63.675781 18.546875 C 63.675781 17.886719 63.402344 17.28125 62.964844 16.839844 C 62.523438 16.402344 61.917969 16.128906 61.253906 16.128906 " fill-opacity="1" fill-rule="nonzero"/><path fill="#6c757d" d="M 18.453125 18.167969 C 19.144531 17.984375 19.558594 17.277344 19.378906 16.582031 C 19.195312 15.890625 18.488281 15.476562 17.792969 15.660156 C 17.777344 15.664062 12.777344 16.960938 9.019531 19.960938 C 4.683594 23.417969 9.058594 33.261719 9.070312 33.292969 C 9.359375 33.949219 10.121094 34.25 10.777344 33.960938 C 11.433594 33.675781 11.734375 32.914062 11.445312 32.257812 C 11.4375 32.234375 7.875 24.191406 10.632812 21.988281 C 13.964844 19.332031 18.441406 18.171875 18.453125 18.167969 " fill-opacity="1" fill-rule="nonzero"/><path fill="#6c757d" d="M 13.308594 18.925781 C 13.207031 18.582031 12.847656 18.386719 12.503906 18.488281 C 12.160156 18.589844 11.964844 18.949219 12.066406 19.292969 C 12.078125 19.339844 17.171875 36.433594 9.816406 30.179688 C 9.542969 29.949219 9.132812 29.984375 8.902344 30.253906 C 8.671875 30.527344 8.707031 30.9375 8.980469 31.167969 C 19.679688 40.265625 13.328125 18.988281 13.308594 18.925781 " fill-opacity="1" fill-rule="nonzero"/><path fill="#6c757d" d="M 8.824219 23.863281 C 8.570312 23.613281 8.160156 23.617188 7.910156 23.871094 C 7.660156 24.128906 7.664062 24.539062 7.917969 24.789062 L 11.210938 28.035156 C 11.46875 28.285156 11.878906 28.285156 12.128906 28.027344 C 12.378906 27.773438 12.375 27.363281 12.121094 27.113281 L 8.824219 23.863281 " fill-opacity="1" fill-rule="nonzero"/><path fill="#6c757d" d="M 11.558594 32.773438 C 11.558594 32.058594 10.976562 31.476562 10.257812 31.476562 C 9.542969 31.476562 8.960938 32.058594 8.960938 32.773438 L 8.960938 62.070312 C 8.960938 62.128906 8.964844 62.183594 8.96875 62.242188 C 9.039062 62.96875 9.8125 69.375 15.589844 69.179688 C 16.472656 69.34375 20.058594 69.734375 21.945312 65.84375 L 21.945312 65.847656 C 22.039062 65.652344 22.082031 65.453125 22.074219 65.25 L 22.074219 37.722656 C 22.148438 37.417969 22.75 36.0625 27.539062 37.320312 C 28.234375 37.503906 28.941406 37.089844 29.125 36.398438 C 29.304688 35.707031 28.894531 34.996094 28.199219 34.8125 C 20.890625 32.890625 19.703125 36.425781 19.519531 37.324219 C 19.492188 37.429688 19.476562 37.539062 19.476562 37.652344 L 19.476562 64.96875 C 18.347656 66.976562 16.457031 66.710938 16.078125 66.636719 C 15.9375 66.59375 15.785156 66.574219 15.625 66.582031 C 12.132812 66.78125 11.609375 62.570312 11.558594 62.027344 L 11.558594 32.773438 " fill-opacity="1" fill-rule="nonzero"/><path fill="#6c757d" d="M 62.929688 43.179688 C 61.808594 43.179688 60.898438 44.089844 60.898438 45.210938 C 60.898438 46.332031 61.808594 47.242188 62.929688 47.242188 C 64.050781 47.242188 64.960938 46.332031 64.960938 45.210938 C 64.960938 44.089844 64.050781 43.179688 62.929688 43.179688 " fill-opacity="1" fill-rule="evenodd"/><path fill="#6c757d" d="M 62.929688 50.84375 C 61.808594 50.84375 60.898438 51.75 60.898438 52.871094 C 60.898438 53.996094 61.808594 54.902344 62.929688 54.902344 C 64.050781 54.902344 64.960938 53.996094 64.960938 52.871094 C 64.960938 51.75 64.050781 50.84375 62.929688 50.84375 " fill-opacity="1" fill-rule="evenodd"/><path fill="#6c757d" d="M 62.929688 58.503906 C 61.808594 58.503906 60.898438 59.414062 60.898438 60.535156 C 60.898438 61.65625 61.808594 62.566406 62.929688 62.566406 C 64.050781 62.566406 64.960938 61.65625 64.960938 60.535156 C 64.960938 59.414062 64.050781 58.503906 62.929688 58.503906 " fill-opacity="1" fill-rule="evenodd"/></svg>