<svg xmlns="http://www.w3.org/2000/svg" xmlns:xlink="http://www.w3.org/1999/xlink" width="18" zoomAndPan="magnify" viewBox="0 0 90 89.999999" height="16" preserveAspectRatio="xMidYMid meet" version="1.0"><defs><clipPath id="4e488cc540"><path d="M 0 12.710938 L 90 12.710938 L 90 77.210938 L 0 77.210938 Z M 0 12.710938 " clip-rule="nonzero"/></clipPath></defs><g clip-path="url(#4e488cc540)"><path fill="#6c757d" d="M 45.953125 12.707031 L 45.953125 12.710938 C 45.597656 12.714844 45.28125 12.726562 44.9375 12.734375 C 44.636719 12.726562 44.359375 12.71875 44.050781 12.714844 L 44.050781 12.710938 C 43.925781 12.707031 43.808594 12.726562 43.695312 12.761719 C 33.609375 12.984375 26.554688 13.609375 22.421875 14.730469 C 20.921875 15.140625 19.835938 16.375 18.726562 17.890625 C 17.617188 19.40625 16.554688 21.277344 15.59375 23.171875 C 14.507812 25.3125 13.621094 27.320312 12.917969 28.976562 C 11.65625 27.921875 10.636719 27.195312 9.703125 26.800781 C 9.082031 26.539062 8.535156 26.542969 7.878906 26.554688 C 7.226562 26.570312 6.503906 26.640625 5.796875 26.757812 C 5.085938 26.867188 4.390625 27.019531 3.789062 27.199219 C 3.191406 27.382812 2.722656 27.480469 2.195312 28.015625 C 1.585938 28.636719 1.15625 29.476562 0.75 30.375 C 0.546875 30.820312 0.378906 31.261719 0.265625 31.675781 C 0.207031 31.886719 0.160156 32.089844 0.144531 32.328125 C 0.128906 32.5625 0.0859375 32.875 0.390625 33.308594 C 0.671875 33.722656 0.796875 33.726562 1.011719 33.867188 C 1.226562 34.007812 1.480469 34.152344 1.789062 34.308594 C 2.398438 34.617188 3.199219 34.957031 4.148438 35.242188 C 5.410156 35.617188 6.929688 35.894531 8.539062 35.832031 C 8.445312 35.933594 8.355469 36.035156 8.261719 36.140625 C 6.597656 37.984375 4.90625 39.746094 4.136719 41.160156 C 4.0625 41.304688 4.015625 41.464844 4.003906 41.628906 C 3.253906 52.628906 3.277344 61.613281 4.089844 68.609375 C 4.15625 69.183594 4.644531 69.621094 5.222656 69.621094 L 6.386719 69.621094 L 6.386719 72.542969 C 6.386719 75.148438 8.527344 77.289062 11.136719 77.289062 L 16.640625 77.289062 C 19.25 77.289062 21.390625 75.148438 21.390625 72.542969 L 21.390625 69.621094 L 23.261719 69.621094 C 23.644531 69.621094 24 69.429688 24.214844 69.109375 C 24.625 68.492188 25.097656 68.222656 26.027344 68.175781 C 26.945312 68.128906 33.390625 68.125 43.96875 68.171875 C 43.992188 68.171875 44.015625 68.179688 44.042969 68.179688 C 44.648438 68.175781 44.875 68.175781 45.457031 68.175781 C 45.671875 68.175781 45.746094 68.175781 45.960938 68.175781 C 45.972656 68.175781 45.980469 68.171875 45.988281 68.171875 C 56.601562 68.125 63.058594 68.128906 63.976562 68.179688 C 64.90625 68.226562 65.378906 68.496094 65.789062 69.113281 C 66.003906 69.433594 66.359375 69.621094 66.742188 69.621094 L 68.613281 69.621094 L 68.613281 72.542969 C 68.613281 75.148438 70.753906 77.289062 73.359375 77.289062 L 78.867188 77.289062 C 81.476562 77.289062 83.617188 75.148438 83.617188 72.542969 L 83.617188 69.621094 L 84.777344 69.621094 C 85.359375 69.621094 85.84375 69.1875 85.914062 68.613281 C 86.726562 61.613281 86.746094 52.632812 86 41.632812 C 85.988281 41.46875 85.941406 41.308594 85.867188 41.164062 C 85.097656 39.746094 83.402344 37.988281 81.742188 36.144531 C 81.644531 36.039062 81.558594 35.9375 81.464844 35.832031 C 83.070312 35.894531 84.59375 35.617188 85.851562 35.242188 C 86.796875 34.957031 87.605469 34.617188 88.21875 34.308594 C 88.523438 34.152344 88.777344 34.007812 88.992188 33.867188 C 89.207031 33.726562 89.332031 33.722656 89.613281 33.308594 C 89.914062 32.875 89.871094 32.5625 89.855469 32.328125 C 89.839844 32.089844 89.792969 31.890625 89.734375 31.675781 C 89.621094 31.261719 89.449219 30.820312 89.246094 30.375 C 88.84375 29.476562 88.410156 28.640625 87.804688 28.015625 C 87.28125 27.480469 86.808594 27.382812 86.207031 27.199219 C 85.605469 27.019531 84.914062 26.867188 84.203125 26.757812 C 83.496094 26.644531 82.777344 26.570312 82.121094 26.554688 L 82.117188 26.554688 C 81.464844 26.546875 80.917969 26.539062 80.296875 26.800781 C 79.367188 27.195312 78.34375 27.921875 77.082031 28.976562 C 76.378906 27.320312 75.496094 25.3125 74.410156 23.175781 C 73.449219 21.28125 72.382812 19.410156 71.277344 17.890625 C 70.167969 16.378906 69.078125 15.144531 67.582031 14.734375 C 63.449219 13.613281 56.402344 12.992188 46.324219 12.765625 C 46.207031 12.726562 46.082031 12.703125 45.953125 12.707031 Z M 44.9375 15.015625 C 55.679688 15.21875 63.125 15.890625 66.980469 16.941406 C 67.425781 17.058594 68.441406 17.886719 69.429688 19.238281 C 70.417969 20.585938 71.4375 22.378906 72.367188 24.207031 C 74.230469 27.863281 75.714844 31.644531 76.136719 32.675781 C 76.449219 33.433594 76.996094 34.136719 77.683594 34.976562 C 78.375 35.816406 79.203125 36.75 80.039062 37.671875 C 81.640625 39.449219 83.242188 41.28125 83.730469 42.09375 C 84.417969 52.359375 84.402344 60.753906 83.722656 67.335938 L 67.25 67.335938 C 66.449219 66.472656 65.332031 65.953125 64.089844 65.890625 C 62.75 65.828125 56.425781 65.835938 45.425781 65.886719 C 33.742188 65.832031 27.296875 65.820312 25.914062 65.886719 C 24.671875 65.953125 23.554688 66.46875 22.753906 67.332031 L 6.28125 67.332031 C 5.605469 60.75 5.582031 52.355469 6.269531 42.09375 C 6.761719 41.28125 8.359375 39.445312 9.960938 37.667969 C 10.796875 36.746094 11.625 35.816406 12.316406 34.972656 C 13.007812 34.132812 13.554688 33.433594 13.867188 32.671875 C 14.289062 31.644531 15.773438 27.863281 17.636719 24.203125 C 18.566406 22.378906 19.585938 20.585938 20.574219 19.238281 C 21.5625 17.886719 22.578125 17.054688 23.023438 16.9375 C 26.867188 15.894531 34.265625 15.222656 44.9375 15.015625 Z M 44.042969 17.816406 C 43.964844 17.816406 43.890625 17.828125 43.816406 17.84375 C 34.070312 17.964844 27.660156 18.402344 24.347656 19.300781 C 24.324219 19.308594 24.304688 19.3125 24.28125 19.320312 C 22.886719 19.785156 21.808594 20.980469 20.78125 22.699219 C 19.707031 24.488281 18.292969 27.921875 16.359375 33.230469 C 16.320312 33.347656 16.292969 33.464844 16.289062 33.589844 C 16.277344 33.960938 16.464844 34.292969 16.621094 34.460938 C 16.777344 34.628906 16.910156 34.699219 17.019531 34.757812 C 17.242188 34.871094 17.414062 34.914062 17.609375 34.960938 C 18 35.050781 18.472656 35.117188 19.089844 35.179688 C 20.328125 35.304688 22.125 35.40625 24.515625 35.488281 C 28.910156 35.636719 35.546875 35.707031 43.953125 35.71875 C 43.980469 35.71875 44.007812 35.726562 44.03125 35.726562 C 44.402344 35.726562 44.640625 35.726562 45 35.726562 C 45.363281 35.726562 45.597656 35.726562 45.96875 35.726562 C 45.996094 35.726562 46.023438 35.71875 46.050781 35.71875 C 54.457031 35.707031 61.09375 35.636719 65.488281 35.488281 C 67.878906 35.40625 69.675781 35.304688 70.914062 35.179688 C 71.53125 35.117188 72 35.050781 72.394531 34.960938 C 72.585938 34.914062 72.757812 34.871094 72.984375 34.757812 C 73.09375 34.699219 73.222656 34.628906 73.378906 34.460938 C 73.539062 34.292969 73.722656 33.960938 73.710938 33.589844 C 73.710938 33.464844 73.683594 33.347656 73.644531 33.230469 C 71.714844 27.921875 70.296875 24.488281 69.222656 22.699219 C 68.191406 20.980469 67.113281 19.785156 65.71875 19.320312 C 65.695312 19.3125 65.675781 19.304688 65.65625 19.300781 C 62.339844 18.402344 55.933594 17.964844 46.1875 17.84375 C 46.113281 17.828125 46.035156 17.816406 45.960938 17.816406 C 45.625 17.820312 45.328125 17.824219 45 17.828125 C 44.671875 17.824219 44.375 17.820312 44.042969 17.816406 Z M 45.015625 20.117188 C 55.335938 20.222656 62.140625 20.730469 65.019531 21.5 C 65.546875 21.6875 66.378906 22.410156 67.261719 23.875 C 68.035156 25.164062 69.375 28.351562 71.042969 32.855469 C 70.902344 32.871094 70.855469 32.890625 70.679688 32.90625 C 69.546875 33.023438 67.773438 33.121094 65.410156 33.203125 C 60.863281 33.355469 53.96875 33.433594 45 33.4375 C 36.03125 33.433594 29.136719 33.355469 24.589844 33.203125 C 22.226562 33.125 20.457031 33.023438 19.320312 32.90625 C 19.148438 32.890625 19.101562 32.871094 18.957031 32.855469 C 20.625 28.351562 21.964844 25.164062 22.738281 23.875 C 23.621094 22.410156 24.457031 21.6875 24.984375 21.5 C 27.863281 20.730469 34.679688 20.222656 45.015625 20.117188 Z M 7.925781 28.84375 C 8.4375 28.832031 8.867188 28.925781 8.816406 28.910156 C 9.355469 29.132812 10.363281 29.804688 11.644531 30.890625 C 11.761719 30.992188 11.898438 31.054688 12.039062 31.101562 C 11.972656 31.269531 11.789062 31.707031 11.75 31.808594 C 11.667969 32.003906 11.289062 32.570312 10.792969 33.207031 C 10.65625 33.199219 10.519531 33.203125 10.386719 33.246094 C 8.484375 33.796875 6.421875 33.53125 4.804688 33.050781 C 4 32.808594 3.300781 32.515625 2.816406 32.269531 C 2.691406 32.203125 2.628906 32.164062 2.53125 32.109375 C 2.605469 31.882812 2.695312 31.621094 2.832031 31.316406 C 3.152344 30.613281 3.65625 29.835938 3.789062 29.671875 C 3.835938 29.664062 4.117188 29.492188 4.457031 29.386719 C 4.917969 29.25 5.53125 29.109375 6.152344 29.015625 C 6.773438 28.914062 7.414062 28.855469 7.925781 28.84375 Z M 82.078125 28.84375 C 82.589844 28.855469 83.226562 28.914062 83.851562 29.015625 C 84.472656 29.109375 85.085938 29.25 85.542969 29.386719 C 85.886719 29.492188 86.164062 29.667969 86.210938 29.671875 C 86.34375 29.835938 86.851562 30.613281 87.167969 31.316406 C 87.304688 31.621094 87.398438 31.882812 87.46875 32.109375 C 87.371094 32.164062 87.308594 32.207031 87.183594 32.269531 C 86.699219 32.515625 86.003906 32.808594 85.195312 33.050781 C 83.578125 33.53125 81.519531 33.796875 79.617188 33.246094 C 79.480469 33.203125 79.347656 33.199219 79.210938 33.207031 C 78.71875 32.570312 78.335938 32.003906 78.253906 31.8125 C 78.214844 31.707031 78.03125 31.273438 77.960938 31.101562 C 78.101562 31.054688 78.238281 30.992188 78.355469 30.890625 C 79.636719 29.804688 80.644531 29.132812 81.183594 28.910156 C 81.132812 28.925781 81.5625 28.832031 82.078125 28.84375 Z M 11.828125 43.796875 C 11.34375 43.796875 10.808594 44.019531 10.488281 44.449219 C 10.164062 44.878906 10.101562 45.453125 10.242188 45.921875 L 11.683594 50.835938 C 11.957031 51.765625 12.6875 52.3125 13.660156 52.3125 L 29.171875 52.3125 C 29.660156 52.3125 30.195312 52.09375 30.515625 51.660156 C 30.835938 51.234375 30.898438 50.660156 30.761719 50.191406 L 29.320312 45.277344 C 29.046875 44.347656 28.316406 43.796875 27.34375 43.796875 Z M 35.136719 43.796875 C 34.296875 43.796875 33.460938 44.152344 32.988281 44.84375 C 32.523438 45.53125 32.496094 46.441406 32.800781 47.222656 L 33.785156 49.726562 C 34.398438 51.292969 35.902344 52.3125 37.585938 52.3125 L 52.417969 52.3125 C 54.101562 52.3125 55.601562 51.292969 56.214844 49.726562 L 57.199219 47.222656 C 57.503906 46.441406 57.480469 45.53125 57.011719 44.84375 C 56.542969 44.152344 55.707031 43.796875 54.863281 43.796875 Z M 62.65625 43.796875 C 61.683594 43.796875 60.957031 44.347656 60.679688 45.277344 L 59.238281 50.191406 C 59.101562 50.660156 59.164062 51.234375 59.484375 51.660156 C 59.808594 52.09375 60.34375 52.3125 60.828125 52.3125 L 76.34375 52.3125 C 77.316406 52.3125 78.046875 51.765625 78.320312 50.835938 L 79.761719 45.921875 C 79.898438 45.453125 79.835938 44.878906 79.515625 44.449219 C 79.191406 44.019531 78.65625 43.796875 78.171875 43.796875 Z M 12.667969 46.085938 L 27.171875 46.085938 L 28.332031 50.027344 L 13.828125 50.027344 Z M 35.136719 46.085938 L 54.863281 46.085938 C 55.128906 46.085938 55.132812 46.148438 55.121094 46.132812 C 55.113281 46.117188 55.167969 46.140625 55.074219 46.386719 L 54.089844 48.890625 C 53.894531 49.378906 52.949219 50.027344 52.417969 50.027344 L 44.03125 50.027344 C 44.027344 50.027344 44.027344 50.027344 44.023438 50.027344 L 37.585938 50.027344 C 37.054688 50.027344 36.105469 49.378906 35.910156 48.890625 L 34.933594 46.386719 C 34.835938 46.140625 34.886719 46.117188 34.878906 46.132812 C 34.871094 46.148438 34.871094 46.085938 35.136719 46.085938 Z M 62.828125 46.085938 L 77.332031 46.085938 L 76.171875 50.027344 L 61.671875 50.027344 Z M 34.433594 56.429688 C 32.980469 56.429688 31.523438 57.035156 30.503906 58.066406 L 28.3125 60.269531 C 28.054688 60.527344 27.84375 60.804688 27.703125 61.15625 C 27.5625 61.511719 27.507812 61.992188 27.691406 62.429688 C 27.875 62.871094 28.253906 63.171875 28.605469 63.324219 C 28.953125 63.472656 29.300781 63.511719 29.664062 63.511719 L 60.339844 63.511719 C 60.703125 63.511719 61.046875 63.46875 61.398438 63.324219 C 61.746094 63.171875 62.128906 62.871094 62.308594 62.429688 C 62.492188 61.992188 62.441406 61.511719 62.296875 61.15625 C 62.160156 60.804688 61.945312 60.527344 61.691406 60.269531 L 59.496094 58.066406 C 58.476562 57.035156 57.019531 56.429688 55.570312 56.429688 Z M 13.300781 58.027344 C 12.886719 58.019531 12.503906 58.238281 12.296875 58.597656 C 12.085938 58.953125 12.085938 59.390625 12.296875 59.746094 C 12.503906 60.105469 12.886719 60.320312 13.300781 60.316406 L 17.359375 60.316406 C 17.769531 60.324219 18.152344 60.105469 18.359375 59.746094 C 18.566406 59.390625 18.566406 58.953125 18.359375 58.597656 C 18.152344 58.238281 17.769531 58.023438 17.359375 58.027344 Z M 72.644531 58.027344 C 72.230469 58.019531 71.847656 58.238281 71.640625 58.597656 C 71.433594 58.953125 71.433594 59.390625 71.640625 59.746094 C 71.847656 60.105469 72.230469 60.320312 72.644531 60.316406 L 76.703125 60.316406 C 77.113281 60.324219 77.496094 60.105469 77.707031 59.746094 C 77.914062 59.390625 77.914062 58.953125 77.707031 58.597656 C 77.496094 58.238281 77.113281 58.023438 76.703125 58.027344 Z M 34.433594 58.714844 L 55.570312 58.714844 C 56.140625 58.714844 57.472656 59.269531 57.878906 59.675781 L 59.421875 61.230469 L 30.582031 61.230469 L 32.125 59.675781 C 32.527344 59.269531 33.863281 58.714844 34.433594 58.714844 Z M 8.671875 69.621094 L 19.101562 69.621094 L 19.101562 72.542969 C 19.101562 73.910156 18.011719 75.003906 16.640625 75.003906 L 11.136719 75.003906 C 9.765625 75.003906 8.671875 73.910156 8.671875 72.542969 Z M 70.898438 69.621094 L 81.328125 69.621094 L 81.328125 72.542969 C 81.328125 73.910156 80.238281 75.003906 78.867188 75.003906 L 73.359375 75.003906 C 71.992188 75.003906 70.898438 73.910156 70.898438 72.542969 L 70.898438 69.621094 " fill-opacity="1" fill-rule="nonzero"/></g></svg>