<svg xmlns="http://www.w3.org/2000/svg" xmlns:xlink="http://www.w3.org/1999/xlink" width="14" zoomAndPan="magnify" viewBox="0 0 90 89.999999" height="14" preserveAspectRatio="xMidYMid meet" version="1.0"><defs><clipPath id="36950699cf"><path d="M 0.949219 0.949219 L 88.699219 0.949219 L 88.699219 88.699219 L 0.949219 88.699219 Z M 0.949219 0.949219 " clip-rule="nonzero"/></clipPath></defs><g clip-path="url(#36950699cf)"><path fill="#6c757d" d="M 81.796875 11.191406 L 73.558594 11.191406 L 73.558594 6.707031 C 73.558594 6.328125 73.519531 5.957031 73.445312 5.585938 C 73.371094 5.214844 73.261719 4.855469 73.117188 4.503906 C 72.972656 4.15625 72.796875 3.824219 72.585938 3.511719 C 72.375 3.195312 72.136719 2.90625 71.871094 2.636719 C 71.601562 2.371094 71.3125 2.132812 71 1.921875 C 70.683594 1.710938 70.351562 1.535156 70.003906 1.390625 C 69.65625 1.246094 69.296875 1.132812 68.925781 1.058594 C 68.554688 0.984375 68.179688 0.949219 67.800781 0.949219 L 64.792969 0.949219 C 64.417969 0.949219 64.042969 0.988281 63.675781 1.0625 C 63.304688 1.140625 62.945312 1.25 62.597656 1.394531 C 62.25 1.539062 61.917969 1.71875 61.605469 1.929688 C 61.292969 2.140625 61.003906 2.378906 60.738281 2.644531 C 60.472656 2.910156 60.234375 3.203125 60.023438 3.515625 C 59.816406 3.832031 59.640625 4.160156 59.496094 4.511719 C 59.351562 4.859375 59.242188 5.21875 59.167969 5.585938 C 59.09375 5.957031 59.058594 6.332031 59.058594 6.707031 L 59.058594 11.191406 L 30.941406 11.191406 L 30.941406 6.707031 C 30.941406 6.332031 30.902344 5.957031 30.828125 5.585938 C 30.753906 5.21875 30.648438 4.859375 30.503906 4.511719 C 30.359375 4.160156 30.183594 3.832031 29.972656 3.515625 C 29.765625 3.203125 29.527344 2.910156 29.261719 2.644531 C 28.996094 2.378906 28.703125 2.140625 28.390625 1.929688 C 28.078125 1.71875 27.75 1.539062 27.402344 1.394531 C 27.050781 1.25 26.695312 1.140625 26.324219 1.0625 C 25.953125 0.988281 25.582031 0.949219 25.203125 0.949219 L 22.195312 0.949219 C 21.816406 0.949219 21.445312 0.984375 21.074219 1.058594 C 20.703125 1.132812 20.34375 1.246094 19.992188 1.390625 C 19.644531 1.535156 19.3125 1.710938 19 1.921875 C 18.683594 2.132812 18.394531 2.371094 18.128906 2.636719 C 17.859375 2.90625 17.621094 3.195312 17.414062 3.511719 C 17.203125 3.824219 17.023438 4.15625 16.878906 4.503906 C 16.734375 4.855469 16.625 5.214844 16.550781 5.585938 C 16.476562 5.957031 16.441406 6.328125 16.441406 6.707031 L 16.441406 11.191406 L 8.203125 11.191406 C 7.726562 11.191406 7.253906 11.238281 6.789062 11.332031 C 6.320312 11.425781 5.867188 11.5625 5.425781 11.746094 C 4.988281 11.929688 4.570312 12.152344 4.171875 12.417969 C 3.777344 12.679688 3.410156 12.980469 3.074219 13.320312 C 2.738281 13.65625 2.4375 14.023438 2.171875 14.417969 C 1.90625 14.8125 1.683594 15.230469 1.5 15.671875 C 1.320312 16.109375 1.179688 16.566406 1.089844 17.03125 C 0.996094 17.5 0.949219 17.96875 0.949219 18.445312 L 0.949219 81.796875 C 0.949219 82.273438 0.996094 82.742188 1.089844 83.210938 C 1.179688 83.675781 1.320312 84.132812 1.5 84.570312 C 1.683594 85.011719 1.90625 85.429688 2.171875 85.824219 C 2.4375 86.21875 2.738281 86.585938 3.074219 86.921875 C 3.410156 87.261719 3.777344 87.5625 4.171875 87.824219 C 4.570312 88.089844 4.988281 88.3125 5.425781 88.496094 C 5.867188 88.679688 6.320312 88.816406 6.789062 88.910156 C 7.253906 89.003906 7.726562 89.050781 8.203125 89.050781 L 81.777344 89.050781 C 82.253906 89.050781 82.726562 89.003906 83.195312 88.914062 C 83.664062 88.820312 84.117188 88.683594 84.558594 88.5 C 85 88.320312 85.417969 88.097656 85.816406 87.832031 C 86.210938 87.566406 86.578125 87.265625 86.917969 86.929688 C 87.253906 86.59375 87.554688 86.226562 87.820312 85.832031 C 88.085938 85.433594 88.3125 85.015625 88.496094 84.574219 C 88.675781 84.132812 88.816406 83.679688 88.910156 83.210938 C 89.003906 82.746094 89.050781 82.273438 89.050781 81.796875 L 89.050781 18.445312 C 89.050781 17.96875 89.003906 17.5 88.910156 17.03125 C 88.816406 16.566406 88.679688 16.109375 88.496094 15.671875 C 88.3125 15.230469 88.089844 14.8125 87.824219 14.417969 C 87.5625 14.023438 87.261719 13.65625 86.921875 13.320312 C 86.585938 12.980469 86.21875 12.679688 85.824219 12.417969 C 85.429688 12.152344 85.011719 11.929688 84.570312 11.746094 C 84.132812 11.5625 83.675781 11.425781 83.210938 11.332031 C 82.742188 11.238281 82.273438 11.191406 81.796875 11.191406 Z M 62.808594 6.707031 C 62.808594 6.441406 62.855469 6.1875 62.957031 5.945312 C 63.058594 5.699219 63.203125 5.484375 63.386719 5.292969 C 63.574219 5.105469 63.789062 4.960938 64.03125 4.855469 C 64.273438 4.753906 64.527344 4.699219 64.792969 4.699219 L 67.800781 4.699219 C 68.070312 4.699219 68.324219 4.75 68.570312 4.851562 C 68.816406 4.953125 69.03125 5.097656 69.222656 5.289062 C 69.410156 5.476562 69.554688 5.695312 69.65625 5.9375 C 69.757812 6.183594 69.808594 6.441406 69.808594 6.707031 L 69.808594 18.320312 L 62.808594 18.320312 Z M 20.207031 6.707031 C 20.207031 6.441406 20.257812 6.1875 20.359375 5.945312 C 20.460938 5.699219 20.601562 5.484375 20.789062 5.292969 C 20.976562 5.105469 21.191406 4.960938 21.433594 4.855469 C 21.675781 4.753906 21.929688 4.699219 22.195312 4.699219 L 25.203125 4.699219 C 25.46875 4.699219 25.722656 4.753906 25.964844 4.855469 C 26.210938 4.960938 26.425781 5.105469 26.609375 5.292969 C 26.796875 5.484375 26.941406 5.699219 27.039062 5.945312 C 27.140625 6.1875 27.191406 6.441406 27.191406 6.707031 L 27.191406 18.320312 L 20.160156 18.320312 Z M 8.203125 14.941406 L 16.441406 14.941406 L 16.441406 22.070312 L 30.941406 22.070312 L 30.941406 14.941406 L 59.058594 14.941406 L 59.058594 22.070312 L 73.585938 22.070312 L 73.585938 14.941406 L 81.824219 14.941406 C 82.285156 14.945312 82.730469 15.039062 83.15625 15.21875 C 83.582031 15.398438 83.957031 15.652344 84.28125 15.980469 C 84.609375 16.308594 84.859375 16.683594 85.035156 17.113281 C 85.210938 17.539062 85.300781 17.984375 85.300781 18.445312 L 85.300781 33.054688 L 4.699219 33.054688 L 4.699219 18.445312 C 4.699219 17.980469 4.789062 17.535156 4.964844 17.105469 C 5.144531 16.675781 5.398438 16.296875 5.726562 15.96875 C 6.054688 15.640625 6.433594 15.386719 6.863281 15.210938 C 7.292969 15.03125 7.738281 14.941406 8.203125 14.941406 Z M 81.796875 85.300781 L 8.222656 85.300781 C 7.753906 85.300781 7.304688 85.214844 6.875 85.039062 C 6.445312 84.859375 6.0625 84.609375 5.730469 84.28125 C 5.402344 83.949219 5.144531 83.570312 4.96875 83.140625 C 4.789062 82.710938 4.699219 82.261719 4.699219 81.796875 L 4.699219 36.808594 L 85.300781 36.808594 L 85.300781 81.796875 C 85.300781 82.261719 85.210938 82.707031 85.03125 83.136719 C 84.855469 83.566406 84.601562 83.945312 84.273438 84.273438 C 83.945312 84.601562 83.566406 84.855469 83.136719 85.03125 C 82.707031 85.210938 82.261719 85.300781 81.796875 85.300781 Z M 81.796875 85.300781 " fill-opacity="1" fill-rule="nonzero"/></g></svg>